<?xml version="1.0" standalone="no"?>
<!DOCTYPE svg PUBLIC "-//W3C//DTD SVG 1.1//EN" "http://www.w3.org/Graphics/SVG/1.1/DTD/svg11.dtd" >
<svg>
<metadata>
Created by FontForge 20090914 at Thu Mar 16 10:11:12 2017
 By www-data
FontBit
</metadata>
<defs>
<font id="TrampolinaRegular" horiz-adv-x="1024" >
  <font-face 
    font-family="TrampolinaRegular"
    font-weight="400"
    font-stretch="normal"
    units-per-em="2048"
    panose-1="0 0 0 0 0 0 0 0 0 0"
    ascent="1505"
    descent="-543"
    x-height="915.999"
    cap-height="1380"
    bbox="-156 -552 2067 1505"
    underline-thickness="150"
    underline-position="-142"
    unicode-range="U+0020-U+2421"
  />
<missing-glyph 
d="M128 0v1505h768v-1505h-768zM256 128h512v1249h-512v-1249z" />
    <glyph glyph-name=".notdef" 
d="M128 0v1505h768v-1505h-768zM256 128h512v1249h-512v-1249z" />
    <glyph glyph-name="space" unicode=" " horiz-adv-x="450" 
 />
    <glyph glyph-name="exclam" unicode="!" horiz-adv-x="483" 
d="M299 1092l-39 -797h-74l-41 797c-2.66699 38 23.333 57 78 57c52 0 77.333 -19 76 -57zM326 63c0 -63.333 -31.667 -95 -95 -95c-64 0 -96 31.667 -96 95c0 64.667 32 97 96 97c63.333 0 95 -32.333 95 -97z" />
    <glyph glyph-name="quotedbl" unicode="&#x22;" horiz-adv-x="620" 
d="M535 1143c0 -48 -9.66699 -99.998 -29 -155.998c-24.667 -76.667 -61 -133.334 -109 -170.001h-65l-10 14c50 67.333 75 196.666 75 387.999c0 24 11.667 36 35 36h64c20 0 32 -12.667 36 -38c2 -6 3 -30.667 3 -74zM258 1143c0 -48 -9.66699 -99.998 -29 -155.998
c-24 -76.667 -60 -133.334 -108 -170.001h-66l-10 14c50.667 67.333 76 196.666 76 387.999c0 24 11.667 36 35 36h63c20.667 0 33 -12.667 37 -38c1.33301 -6 2 -30.667 2 -74z" />
    <glyph glyph-name="numbersign" unicode="#" horiz-adv-x="913" 
d="M823 733h-166l-30 -225h155v-90h-170l-47 -322h-88l49 322h-192l-49 -322h-86l49 322h-158v90h168l33 225h-162v88h172l45 299h88l-43 -299h189l45 299h88l-43 -299h153v-88zM569 733h-190l-31 -225h191z" />
    <glyph glyph-name="dollar" unicode="$" horiz-adv-x="1046" 
d="M933 264c0 -80.667 -37.667 -146.667 -113 -198c-69.333 -49.333 -149 -74 -239 -74h-21v-141h-88v141c-105.333 0 -191.333 32 -258 96c-61.333 60 -92 131.667 -92 215h108c0 -69.333 27.333 -124 82 -164c46.667 -32.667 100 -49 160 -49v455
c-218.667 72 -328 173 -328 303c0 78 28 142.667 84 194c62 54.667 143.333 82 244 82v125h88v-123c101.333 0 180.666 -30 237.999 -90c48.667 -50 73 -111.333 73 -184h-104c0 49.333 -17.667 91 -53 125s-86.666 51 -153.999 51v-401
c122.667 -45.333 212.667 -93.333 270 -144c68.667 -61.333 103 -134.333 103 -219zM472 655v371c-74 0 -130.667 -19 -170 -57c-32.667 -31.333 -49 -69 -49 -113c0 -48 18.333 -87.667 55 -119c31.333 -26 86 -53.333 164 -82zM816 268
c0 106.667 -85.333 188.667 -256 246v-424c80.667 0 143.5 16 188.5 48s67.5 75.333 67.5 130z" />
    <glyph glyph-name="percent" unicode="%" horiz-adv-x="1388" 
d="M1253 272c0 -77.333 -25.168 -143.667 -75.501 -199s-111.166 -83 -182.499 -83c-69.333 0 -129.666 28 -180.999 84s-77 122 -77 198c0 76.667 25 144.667 75 204s111 89 183 89c75.333 0 137.166 -29 185.499 -87s72.5 -126.667 72.5 -206zM650.999 871.999
c0 -77.333 -25.168 -143.667 -75.501 -199s-111.166 -83 -182.499 -83c-68 0 -128 28 -180 84s-78 122 -78 198c0 76.667 25 144.667 75 204s111 89 183 89c75.333 0 138.333 -30 189 -90c46 -56 69 -123.667 69 -203zM1135 1153l-766 -1153h-121l766 1153h121z
M1153 271.998c0 52 -14.667 96.5 -44 133.5s-67.333 55.5 -114 55.5c-44.667 0 -82.334 -19.5 -113.001 -58.5s-46 -82.5 -46 -130.5c0 -50 15.333 -93.167 46 -129.5s68.334 -54.5 113.001 -54.5c45.333 0 83 18.167 113 54.5s45 79.5 45 129.5zM550.998 871.998
c0 52 -14.333 96.5 -43 133.5s-67 55.5 -115 55.5c-44.667 0 -82.5 -19.5 -113.5 -58.5s-46.5 -82.5 -46.5 -130.5c0 -50 15.833 -93.167 47.5 -129.5s69.167 -54.5 112.5 -54.5c46.667 0 84.667 18.167 114 54.5s44 79.5 44 129.5z" />
    <glyph glyph-name="ampersand" unicode="&#x26;" horiz-adv-x="1325" 
d="M1181 471c0 -314 -153 -471 -459 -471h-303v565h112v-459h181c126.667 0 216 26 268 78c57.333 57.333 86 160 86 308v462h115v-483zM853 317l-113.001 -0.000976562v189c0 126.667 -26.167 215.334 -78.5 266.001s-137.166 76 -254.499 76h-181v-848h-114v954h295
c150 0 260.333 -33.333 331 -100c76.667 -70.667 115 -186.667 115 -348v-189z" />
    <glyph glyph-name="quotesingle" unicode="'" horiz-adv-x="344" 
d="M258 1143c0 -48 -9.66699 -99.998 -29 -155.998c-24 -76.667 -60 -133.334 -108 -170.001h-66l-10 14c50.667 67.333 76 196.666 76 387.999c0 24 11.667 36 35 36h63c20.667 0 33 -12.667 37 -38c1.33301 -6 2 -30.667 2 -74z" />
    <glyph glyph-name="parenleft" unicode="(" horiz-adv-x="632" 
d="M547 -249h-121c-84.667 82 -157 184 -217 306c-78 160 -117 326 -117 498s39 338 117 498c60 122.667 132.333 225 217 307h121c-91.333 -86 -168 -196 -230 -330c-73.333 -156.667 -110 -315 -110 -475s36.667 -318.333 110 -475c62 -133.333 138.667 -243 230 -329z
" />
    <glyph glyph-name="parenright" unicode=")" horiz-adv-x="591" 
d="M500 555c0 -172 -39 -338 -117 -498c-60 -122 -132.333 -224 -217 -306h-121c91.333 86 167.666 195.667 228.999 329c74 156.667 111 315 111 475s-37 318.333 -111 475c-61.333 134 -137.666 244 -228.999 330h121c84.667 -82 157 -184.333 217 -307
c78 -160 117 -326 117 -498z" />
    <glyph glyph-name="asterisk" unicode="*" horiz-adv-x="829" 
d="M708 1059l-242 -53l168 -185l-92 -69l-127 219l-127 -219l-88 69l164 185l-244 53l31 108l235 -102l-25 246h107l-25 -246l230 102z" />
    <glyph glyph-name="plus" unicode="+" horiz-adv-x="638" 
d="M594 461h-219v-215h-109v215h-219v108h219v224h109v-224h219v-108z" />
    <glyph glyph-name="comma" unicode="," horiz-adv-x="360" 
d="M237 121c0 -49.333 -9.66699 -101.667 -29 -157c-24.667 -75.333 -61 -131.333 -109 -168h-65l-10 14c50 65.333 75 194.333 75 387c0 24 11.667 36 35 36h64c20 0 32.333 -12.667 37 -38c1.33301 -7.33301 2 -32 2 -74z" />
    <glyph glyph-name="hyphen" unicode="-" horiz-adv-x="638" 
d="M566 451h-495v118h495v-118z" />
    <glyph glyph-name="period" unicode="." horiz-adv-x="348" 
d="M236 63c0 -63.333 -31.667 -95 -95 -95c-64 0 -96 31.667 -96 95c0 64.667 32 97 96 97c63.333 0 95 -32.333 95 -97z" />
    <glyph glyph-name="slash" unicode="/" horiz-adv-x="649" 
d="M618 1253l-516 -1369h-110l518 1369h108z" />
    <glyph glyph-name="zero" unicode="0" horiz-adv-x="954" 
d="M880 494c0 -152 -40.999 -275.667 -122.999 -371c-76.667 -91.333 -170.334 -137 -281.001 -137c-113.333 0 -207.333 45.667 -282 137c-79.333 95.333 -119 219 -119 371v118c0 150.667 37.167 273 111.5 367s170.833 141 289.5 141c116 0 211 -44.333 285 -133
c79.333 -92.667 119 -217.667 119 -375v-118zM747.001 504v108.001c0 123.333 -24.333 219.5 -73 288.5s-114.667 103.5 -198 103.5c-87.333 0 -153.833 -34.833 -199.5 -104.5s-68.5 -165.5 -68.5 -287.5v-108c0 -124.667 23.5 -222.834 70.5 -294.501
s112.833 -107.5 197.5 -107.5c82 0 147.667 37 197 111s74 171 74 291z" />
    <glyph glyph-name="one" unicode="1" horiz-adv-x="954" 
d="M605 0h-125v954c-26 -26 -60.667 -49.667 -104 -71c-48 -24.667 -90.333 -37 -127 -37h-8v110c90 19.333 189 73.333 297 162h67v-1118z" />
    <glyph glyph-name="two" unicode="2" horiz-adv-x="954" 
d="M858 0h-759.998c0 120 73.667 233.333 221 340l226 162c106.667 76 160 166.667 160 272c0 68.667 -23.667 123.667 -71 165s-107 62 -179 62c-70 0 -127.333 -21.667 -172 -65c-38.667 -41.333 -58 -87 -58 -137h-123c0 77.333 30.333 147.666 91 210.999
c70.667 72 160.667 108 270 108c103.333 0 190.666 -32 261.999 -96c76.667 -65.333 115 -150 115 -254c0 -131.333 -80 -253.666 -240 -366.999l-188 -133c-88.667 -61.333 -137.334 -112.333 -146.001 -153h592v-115z" />
    <glyph glyph-name="three" unicode="3" horiz-adv-x="954" 
d="M864 291c0 -87.333 -39.8379 -161.001 -119.505 -221.001s-170.834 -90 -273.501 -90c-120 0 -215 29.333 -285 88c-64 51.333 -96 114.666 -96 189.999h119c8 -49.333 33.833 -88.666 77.5 -117.999s101.834 -44 174.501 -44c80.667 0 145.834 18.167 195.501 54.5
s74.5 84.5 74.5 144.5c0 69.333 -28.667 124 -86 164c-53.333 35.333 -121.666 53 -204.999 53h-121v119h123c72.667 0 131.334 14.333 176.001 43c50.667 31.333 76 76.333 76 135c0 131.333 -77.667 197 -233 197c-71.333 0 -129.333 -17.333 -174 -52
c-38.667 -30 -58 -64 -58 -102h-118c0 72.667 30.667 134 92 184c66.667 54.667 155.334 82 266.001 82c96.667 0 179.334 -26.667 248.001 -80c70.667 -57.333 106 -130.333 106 -219c0 -61.333 -19.333 -113.166 -58 -155.499s-89 -70.833 -151 -85.5v-5
c74 -18.667 134.167 -54 180.5 -106s69.5 -110.667 69.5 -176z" />
    <glyph glyph-name="four" unicode="4" horiz-adv-x="954" 
d="M903 276h-164v-276h-118v276h-560v91l594 753h84v-733h164v-111zM621 387v516h-13l-409 -516h422z" />
    <glyph glyph-name="five" unicode="5" horiz-adv-x="954" 
d="M864 356c0 -117.333 -41 -210.668 -123 -280.001c-73.333 -64 -163.333 -96 -270 -96c-118.667 0 -212.334 28.667 -281.001 86c-58.667 48.667 -92 112.667 -100 192h119c8 -49.333 33.833 -88.666 77.5 -117.999s101.834 -44 174.501 -44c78 0 142.5 22.5 193.5 67.5
s76.5 107.167 76.5 186.5c0 87.333 -25.5 155 -76.5 203s-116.167 72 -195.5 72c-78 0 -154 -36.333 -228 -109h-112v592h661v-117h-540v-342c65.333 56 149.333 84 252 84c102 0 188 -32 258 -96c76 -68 114 -161.667 114 -281z" />
    <glyph glyph-name="six" unicode="6" horiz-adv-x="954" 
d="M856 350c0 -117.333 -38.332 -209.332 -114.999 -275.999c-68 -62.667 -154.667 -94 -260 -94c-117.333 0 -210.5 35 -279.5 105s-103.5 161.667 -103.5 275v328c0 127.333 34.167 231.166 102.5 311.499s160.5 120.5 276.5 120.5c101.333 0 182 -30.667 242 -92
c50.667 -50.667 78 -112 82 -184h-117c-4 50.667 -24.833 90.667 -62.5 120s-83.834 44 -138.501 44c-176 0 -264 -103.333 -264 -310v-112c60 84.667 146 127 258 127c101.333 0 188 -30 260 -90c79.333 -68.667 119 -159.667 119 -273zM729.001 348.001
c0 86 -26.667 151 -80 195c-46 39.333 -107.333 59 -184 59c-72.667 0 -132.834 -23.167 -180.501 -69.5s-71.5 -103.833 -71.5 -172.5c0 -80 25.333 -144.667 76 -194s111.334 -74 182.001 -74c78 0 140.5 21.833 187.5 65.5s70.5 107.167 70.5 190.5z" />
    <glyph glyph-name="seven" unicode="7" horiz-adv-x="954" 
d="M861 1087l-493 -1087h-140l463 991h-610v117h780v-21z" />
    <glyph glyph-name="eight" unicode="8" horiz-adv-x="954" 
d="M871 287c0 -91.333 -36.167 -165.667 -108.5 -223s-167.833 -86 -286.5 -86c-120 0 -215.833 28.667 -287.5 86s-107.5 131.666 -107.5 222.999c0 64 19 122.667 57 176c42.667 60 99.334 99 170.001 117v4c-57.333 13.333 -102.666 44.333 -135.999 93
s-50 102.334 -50 161.001c0 88.667 34.667 160.334 104 215.001c66 50 149.333 75 250 75c101.333 0 184.666 -25 249.999 -75c69.333 -54.667 104 -126.334 104 -215.001c0 -58.667 -17.333 -112 -52 -160s-79.334 -79.333 -134.001 -94v-4
c76.667 -19.333 134.667 -59 174 -119c35.333 -52 53 -110 53 -174zM708 826.999c0 63.333 -20.833 111.667 -62.5 145s-98.167 50 -169.5 50c-70.667 0 -127.167 -16.667 -169.5 -50s-63.5 -81 -63.5 -143c0 -61.333 20.833 -110 62.5 -146s98.5 -54 170.5 -54
c154.667 0 232 66 232 198zM744 291c0 76.667 -24.168 135.001 -72.501 175.001s-113.5 60 -195.5 60s-146 -19.667 -192 -59c-50.667 -40.667 -76 -99.334 -76 -176.001c0 -67.333 26.667 -119.333 80 -156c48.667 -34 111.334 -51 188.001 -51c78 0 141 17 189 51
c52.667 36.667 79 88.667 79 156z" />
    <glyph glyph-name="nine" unicode="9" horiz-adv-x="954" 
d="M856 412c0 -127.333 -35.832 -231.168 -107.499 -311.501s-165.5 -120.5 -281.5 -120.5c-102.667 0 -184.667 28.667 -246 86c-54.667 50 -84 110 -88 180h117c4 -49.333 26.167 -87.333 66.5 -114s88.5 -40 144.5 -40c182.667 0 274 103 274 309v113
c-60 -84.667 -146 -127 -258 -127c-100.667 0 -187.334 30 -260.001 90c-79.333 68.667 -119 159.667 -119 273c0 117.333 38.333 209.333 115 276c68 62.667 154.667 94 260 94c117.333 0 210.5 -35.167 279.5 -105.5s103.5 -162.166 103.5 -275.499v-327zM741.001 738.998
c0 80.667 -25.1699 145.667 -75.5029 195s-111.166 74 -182.499 74c-77.333 0 -138.666 -21.333 -183.999 -64c-49.333 -44.667 -74 -108.667 -74 -192c0 -86 26.667 -151 80 -195c46.667 -39.333 108 -59 184 -59c72.667 0 132.834 23.167 180.501 69.5
s71.5 103.5 71.5 171.5z" />
    <glyph glyph-name="colon" unicode=":" horiz-adv-x="391" 
d="M255 762c0 -64 -31.333 -96 -94 -96c-64 0 -96 32 -96 96s32 96 96 96c62.667 0 94 -32 94 -96zM255 63c0 -63.333 -31.333 -95 -94 -95c-64 0 -96 31.667 -96 95c0 64.667 32 97 96 97c62.667 0 94 -32.333 94 -97z" />
    <glyph glyph-name="semicolon" unicode=";" horiz-adv-x="401" 
d="M266 762c0 -64 -31.333 -96 -94 -96c-64 0 -96 32 -96 96s32 96 96 96c62.667 0 94 -32 94 -96zM258 121c0 -49.333 -9.66699 -101.667 -29 -157c-24 -75.333 -60 -131.333 -108 -168h-66l-10 14c50.667 65.333 76 194.333 76 387c0 24 11.667 36 35 36h63
c20.667 0 33 -12.667 37 -38c1.33301 -7.33301 2 -32 2 -74z" />
    <glyph glyph-name="less" unicode="&#x3c;" horiz-adv-x="638" 
d="M572 221l-507 258v96l507 299v-137l-380 -211l380 -168v-137z" />
    <glyph glyph-name="equal" unicode="=" horiz-adv-x="638" 
d="M556 625h-475v118h475v-118zM556 283h-475v118h475v-118z" />
    <glyph glyph-name="greater" unicode="&#x3e;" horiz-adv-x="638" 
d="M572 479l-507 -258v137l380 168l-380 211v137l507 -299v-96z" />
    <glyph glyph-name="question" unicode="?" horiz-adv-x="890" 
d="M756 829c0 -95.333 -53.333 -186.665 -160 -273.998c-110.667 -91.333 -166 -174.666 -166 -249.999v-10h-98l-2 16c-5.33301 92 48.667 189 162 291c50 45.333 82.667 78.666 98 99.999c24.667 34.667 37 73.667 37 117c0 70 -24 124 -72 162
c-39.333 31.333 -87 47 -143 47c-57.333 0 -106.833 -20.833 -148.5 -62.5s-62.5 -89.834 -62.5 -144.501h-109c-2.66699 83.333 24 155.666 80 216.999c60 70 141.333 105 244 105c95.333 0 175.833 -29.667 241.5 -89s98.5 -134.333 98.5 -225zM481 63.001
c0 -63.333 -31.333 -95 -94 -95c-64 0 -96 31.667 -96 95c0 64.667 32 97 96 97c62.667 0 94 -32.333 94 -97z" />
    <glyph glyph-name="at" unicode="@" horiz-adv-x="1886" 
d="M1844 156c-62.667 -192 -172.663 -342.667 -329.996 -452c-154 -108 -333 -162 -537 -162c-160.667 0 -307.334 37 -440.001 111c-136.667 76 -242.834 182.833 -318.501 320.5s-113.5 289.167 -113.5 454.5c0 176 40.667 339 122 489
c83.333 154.667 199.666 274.834 348.999 360.501s307.666 128.5 474.999 128.5c134.667 0 255.334 -26.333 362.001 -79c117.333 -58 205.333 -142.667 264 -254s88 -228.666 88 -351.999c0 -112.667 -22 -222.667 -66 -330c-46.667 -115.333 -111 -206 -193 -272
c-86 -69.333 -183.667 -104 -293 -104c-102 0 -162.333 40.333 -181 121c10.667 42.667 29.334 77.334 56.001 104.001c-164 -150.667 -298.667 -226 -404 -226c-56.667 0 -102 25.667 -136 77c-30 44.667 -45 96.667 -45 156c0 104 34.667 219 104 345
c57.333 104 129.666 202.667 216.999 296c71.333 48.667 130.333 73 177 73c20 0 37.667 -4.33301 53 -13c93.333 0 160.666 -28 201.999 -84l8 96l136 -24l-101 -393c-48 -186.667 -72 -299.334 -72 -338.001c0 -12.667 1.66699 -22.334 5 -29.001
c-4 -13.333 -6 -24.333 -6 -33c0 -18.667 8.33301 -28 25 -28c11.333 0 26.333 4.33301 45 13c13.333 -6 26.666 -9 39.999 -9c49.333 0 100 40.333 152 121c61.333 26.667 109.333 79 144 157c48.667 109.333 73 223.333 73 342c-22 94 -57 197 -105 309
c-60.667 89.333 -142.334 160 -245.001 212c-100 50.667 -205 76 -315 76c-154.667 -42.667 -285.334 -96 -392.001 -160c-148.667 -50.667 -236.667 -141.334 -264 -272.001c-104.667 -144 -157 -281 -157 -411c0 -23.333 1.66699 -46.333 5 -69
c-5.33301 -160 29.334 -296 104.001 -408c40.667 -144.667 131.334 -230 272.001 -256c93.333 -56 213.333 -93.333 360 -112c36.667 -4.66699 70.334 -7 101.001 -7c154 0 285.667 50.333 395 151c140.667 70 226 203.333 256 400zM1182 773
c0 40 -10.668 73.333 -32.001 100c-11.333 14.667 -26 22 -44 22c-18.667 0 -40.667 -7.66699 -66 -23c-53.333 5.33301 -98.666 -40 -135.999 -136c-74 -8.66699 -138 -79 -192 -211c-39.333 -96.667 -59 -174 -59 -232c12.667 -19.333 22.667 -51 30 -95
c19.333 16 35.666 24 48.999 24c15.333 0 27.333 -10 36 -30c74.667 37.333 157.334 101.333 248.001 192c26.667 58.667 66.667 106.667 120 144c30.667 97.333 46 179 46 245z" />
    <glyph glyph-name="A" unicode="A" horiz-adv-x="1479" 
d="M1456 0h-535.001l39 32c48 21.333 81 50.666 99 87.999c0 29.333 -13.333 75.666 -40 138.999l-82 195h-525l-92 -214c-22.667 -52.667 -34 -92 -34 -118c0 -49.333 38 -76.666 114 -81.999l43 -40h-427v37c56.667 10 88.667 32.333 96 67
c42.667 12.667 85 68.334 127 167.001l477 1116l44 -27l463 -1101c32 -76 67 -122.333 105 -139c20.667 -51.333 63.334 -79 128.001 -83v-37zM871.999 544l-176 528l-253 -544z" />
    <glyph glyph-name="B" unicode="B" horiz-adv-x="1366" 
d="M1254 371c0 -76 -21.667 -142.999 -65 -200.999s-101.333 -100.333 -174 -127c-83.333 -30.667 -197 -45 -341 -43l-578 8l-16 56l5 -27c57.333 0 98 18 122 54c6 35.333 13.667 85 23 149v876c0 84 -9.66699 137 -29 159c-26 29.333 -64.667 44 -116 44l43 -7l-48 40
l540 4c225.333 2 385.333 -44.333 480 -139c60.667 -60.667 91 -135 91 -223c0 -148.667 -81.667 -249.334 -245 -302.001c94 -20 164.333 -52 211 -96c64.667 -61.333 97 -136.333 97 -225zM982 1002c0 96.667 -40.999 170.668 -122.999 222.001
c-69.333 43.333 -155 65 -257 65c-66.667 0 -126.667 -7.33301 -180 -22v-521c44 -1.33301 103.333 8.66699 178 30c45.333 -7.33301 86.666 -11 123.999 -11c108 0 181 31.667 219 95c26 43.333 39 90.666 39 141.999zM1022 354.002c0 125.333 -61 214.333 -183 267
c-64.667 28 -144.667 42 -240 42c-85.333 0 -144.333 -3 -177 -9l-22 -494c92 -59.333 175.667 -89 251 -89c100.667 0 184.667 21.333 252 64c79.333 50.667 119 123.667 119 219z" />
    <glyph glyph-name="C" unicode="C" horiz-adv-x="1366" 
d="M1336 320c-158.667 -234 -359.335 -351.001 -602.002 -351.001c-224.667 0 -398.667 83.333 -522 250c-92 124 -138 270 -138 438c0 132.667 28.667 254.334 86 365.001c60 116.667 145.333 207.334 256 272.001c106 62 222 93 348 93c98.667 0 195.334 -24 290.001 -72
c28.667 -14.667 48.667 -22 60 -22c15.333 3.33301 23 13.666 23 30.999c0 18 -8.33301 43.333 -25 76l121 -13l31 -461l-64 2c-56 258 -196 387 -420 387c-196.667 0 -335 -95.667 -415 -287c-42 -100.667 -63 -225 -63 -373c0 -254.667 79 -430 237 -526
c58.667 -18 130 -27 214 -27c20 0 41 0.666992 63 2c36.667 -12 72 -18 106 -18c54.667 0 105 16 151 48c52.667 76 116.334 144 191.001 204z" />
    <glyph glyph-name="D" unicode="D" horiz-adv-x="1479" 
d="M1401 685c0 -189.333 -57.333 -346.999 -172 -472.999c-132 -145.333 -328 -216 -588 -212l-537 8l-16 -8l-2 37c57.333 0 98 18.333 122 55c14.667 22 22 71.333 22 148v876c0 84.667 -34 131.334 -102 140.001c7.33301 13.333 11 23.666 11 30.999
c0 10 -6.33301 15 -19 15c-8 0 -18.667 -2 -32 -6v0l-24 80l523 -20c197.333 -7.33301 333 -23.666 407 -48.999c132 -44.667 234 -125.334 306 -242.001c67.333 -108.667 101 -235.334 101 -380.001zM1173 675.001c0 178 -49.668 315.667 -149.001 413
c-109.333 106.667 -240 160 -392 160c-19.333 2 -40.333 3 -63 3c-45.333 0 -96.333 -3.66699 -153 -11l6 -1142c28.667 1.33301 101.334 0.666016 218.001 -2.00098c173.333 -4 307 49.333 401 160c88 102.667 132 242.334 132 419.001z" />
    <glyph glyph-name="E" unicode="E" horiz-adv-x="1251" 
d="M1192 304l-95.998 -320h-1000l-16 80l2 -43c31.333 0 60 27.667 86 83c12 -10.667 22.333 -16 31 -16c22.667 0 33.667 58.667 33 176l-4 840c-18.667 79.333 -28 129 -28 149c0 5.33301 0.666992 8.66602 2 9.99902c-23.333 26.667 -63.333 40 -120 40l-10 9v40
l1007 -12l15 -297l-70 5c-10.667 58.667 -21.334 101.334 -32.001 128.001c-21.333 26 -90.666 55.333 -207.999 88h-376l24 -488l286 -46c128 0 192 34.667 192 104c0 10 -2 20 -6 30l72 32l32 -360l-88 -32c-2 34 -7.66699 60 -17 78c-26 50.667 -78 76 -156 76
c-11.333 0 -21 -0.333008 -29 -1l-294 -25l-4 -422c-0.666992 -49.333 -0.333984 -75 0.999023 -77c24.667 -16.667 44.334 -29 59.001 -37c7.33301 -4 16 -6 26 -6c16 0 36.667 4.66699 62 14h184c37.333 5.33301 68.666 8 93.999 8s44.666 -2.66699 57.999 -8
c48 16 89.667 27 125 33c28.667 42 51 103 67 183z" />
    <glyph glyph-name="F" unicode="F" horiz-adv-x="1139" 
d="M1055 1058l-79.001 -2.00195c-16 96 -56 160 -120 192c-21.333 -10.667 -72 -16 -152 -16h-288l16 -416l234 -67c46.667 23.333 91 39 133 47c21.333 26 36 72.333 44 139h37v-459h-37c-1.33301 88.667 -26 146 -74 172c-22 12 -56.333 18 -103 18l-226 -42l-21 -384
c12.667 -34.667 19 -65.667 19 -93c0 -15.333 -2 -29.666 -6 -42.999c2.66699 -7.33301 8.66699 -11 18 -11c12.667 0 30.667 6.33301 54 19c42.667 -26.667 63.334 -51.667 62.001 -75h49v-37l-583 8l40 56l9 -27c36.667 34 71 51 103 51
c0 42.667 14.333 93.334 43 152.001v876c0 68.667 -4.33301 114 -13 136c-18 44.667 -62.333 67 -133 67l-9 -23l-8 64l960 -8z" />
    <glyph glyph-name="G" unicode="G" horiz-adv-x="1479" 
d="M1392 680l25 14.002c-34.667 -44 -60.334 -66 -77.001 -66c-9.33301 0 -16 6.66699 -20 20c-11.333 -16 -17 -40.667 -17 -74c0 -24 3 -52.667 9 -86l-104 -384c-74.667 -128 -213.334 -200 -416.001 -216c-290.667 21.333 -493.334 125.333 -608.001 312
c-73.333 119.333 -113.333 269 -120 449c-5.33301 140.667 23.334 255 86.001 343c109.333 266.667 277.333 400 504 400c40.667 0 83.334 -4.33301 128.001 -13c87.333 0 189.333 -21.667 306 -65c38 -14 63 -21 75 -21c19.333 0 29 8.33301 29 25
c0 9.33301 -2.66699 20.666 -8 33.999l80 8l20 -409l-84 9c-2.66699 100.667 -32 178 -88 232c-64 45.333 -137.333 68 -220 68c-34.667 0 -70.667 -4 -108 -12c-45.333 17.333 -87.666 26 -126.999 26c-107.333 0 -190.333 -64.667 -249 -194
c-76 -98.667 -114 -228 -114 -388c0 -117.333 21.333 -227.333 64 -330c76 -81.333 146 -143.333 210 -186l224 -56c96 -5.33301 170.667 16 224 64l79 312c0 50.667 -2 85 -6 103l-97 41c0.666992 5.33301 1 10.333 1 15c0 27.333 -11 43.666 -33 48.999l32 80l448 -8z" />
    <glyph glyph-name="H" unicode="H" horiz-adv-x="1479" 
d="M1429 0h-557.003l-23 37l47 3c56 -2 96.667 13.333 122 46c16.667 21.333 25 72.666 25 153.999v413h-630v-413c0 -68.667 11.667 -114 35 -136c4 -24 24.333 -36 61 -36c12.667 0 27 1.33301 43 4l56 -35v-45l-581 8v37l21 43c18 -5.33301 33.333 -8 46 -8
c26 0 42.667 10.667 50 32c37.333 32 61.333 85.333 72 160l5 851c0.666992 74 -3.66602 119.667 -12.999 137c-32 2.66699 -48 9.33398 -48 20.001c-53.333 0 -81.666 15.667 -84.999 47l-43 -55v104l576 -12v-37h-49c-35.333 0 -64 -9.33301 -86 -28
c-14.667 -12.667 -33.334 -37.667 -56.001 -75c-2.66699 -15.333 -4 -49 -4 -101l43 -339h576l11 339c2 64 -2.33301 109.667 -13 137c-41.333 8 -85.666 30.333 -132.999 67h-48v37h580v-37h-48c-54.667 0 -101.667 -39.667 -141 -119
c-3.33301 -3.33301 4.66699 -35.333 24 -96l-29 -864c-2 -66 2.33301 -106 13 -120c33.333 -18.667 50 -34 50 -46c0 -4.66699 -3 -9 -9 -13c28.667 -16 59.334 -24 92.001 -24h48v-37z" />
    <glyph glyph-name="I" unicode="I" horiz-adv-x="682" 
d="M624 0l-584 4.00293l3 33h48c56 0 87 22.333 93 67c26.667 29.333 44.334 74.666 53.001 135.999v876c0 68.667 -4.33301 114 -13 136c-6.66699 17.333 -29.334 26.666 -68.001 27.999c-18 14 -40.667 24.667 -68 32l-44 12v48l584 8l-4 -61h-49
c-39.333 -23.333 -68.333 -52.333 -87 -87c-32 -16 -51.667 -54.667 -59 -116l19 -868c15.333 -38.667 23 -73.334 23 -104.001c0 -11.333 -1 -22 -3 -32c16 -32 51.667 -57 107 -75l41 43z" />
    <glyph glyph-name="J" unicode="J" horiz-adv-x="797" 
d="M785 1319h-49.0039c-53.333 -10 -93.666 -26.333 -120.999 -49c-16 -20.667 -24 -72 -24 -154v-663c0 -190 -47.667 -331.667 -143 -425c-58.667 -39.333 -126.667 -59 -204 -59c-51.333 0 -96.333 12.333 -135 37c-32.667 36 -49 76.667 -49 122
c-2 12.667 -3 23.667 -3 33c0 33.333 13.333 50 40 50c6.66699 0 14.334 -1 23.001 -3c46.667 12.667 81 3.66699 103 -27c10 -14 25 -37 45 -69c10 -11.333 18 -17 24 -17c5.33301 0 9.33301 4.33301 12 13c34.667 0 53.334 29.333 56.001 88l39 920
c2.66699 62 -1.66602 107.333 -12.999 136c-33.333 24 -78 38.667 -134 44l-48 23l-12 77h600z" />
    <glyph glyph-name="K" unicode="K" horiz-adv-x="1479" 
d="M1508 -8l-645 -0.00195312v37c72.667 0 109 21 109 63c0 28.667 -24 66.667 -72 114l-468 463v-437c0 -68.667 4.33301 -114 13 -136c16.667 -28 44.334 -42 83.001 -42c8.66699 0 18 0.666992 28 2l56 -8l4 -56h-568l8 36l24 24c61.333 5.33301 106.666 14 135.999 26
c16 20.667 24 72 24 154v876c-8 66.667 -12.333 112.334 -13 137.001c-16.667 6.66699 -39 19.667 -67 39c-15.333 10.667 -37.333 19.667 -66 27h-48l2 53l572 -4l-4 -56l-44 -20c-6 1.33301 -12 2 -18 2c-27.333 0 -62.666 -30 -105.999 -90
c-10.667 -6.66699 -16 -36 -16 -88v-415c26 24.667 67.333 76.334 124 155.001c208 164 328 276 360 336c5.33301 29.333 10.666 53.333 15.999 72c-15.333 8 -36.666 24 -63.999 48l-32 28l4 48l488 4l2 -73c-49.333 -7.33301 -107.333 -27 -174 -59
c-26.667 -26.667 -65.334 -68 -116.001 -124c-64.667 -53.333 -122 -109.333 -172 -168l-184 -216l440 -497c120.667 -136 248.667 -208.667 384 -218v-37z" />
    <glyph glyph-name="L" unicode="L" horiz-adv-x="1251" 
d="M1232 280l-145.001 -288.002h-1050v37h51c57.333 0 98.333 18.667 123 56c14 21.333 21 70.666 21 147.999v875c0 84.667 -10.667 143.334 -32 176.001c-33.333 1.33301 -66.666 4 -99.999 8l-68 8l-4 60h628l-8 -96c-45.333 12.667 -83.333 19 -114 19
c-48 0 -79.333 -15 -94 -45c-6 -12 -11.333 -63 -16 -153l-44 -853c10.667 -45.333 30.667 -83 60 -113c18.667 -15.333 46.667 -25.666 84 -30.999l192 16c88 -2.66699 154 -7 198 -13c120.667 28.667 194.667 106.334 222 233.001zM1144 55.998z" />
    <glyph glyph-name="M" unicode="M" horiz-adv-x="1821" 
d="M1760 -12l-548 11.998v44l48 16c17.333 -6 33.333 -9 48 -9c39.333 0 65 22 77 66c6 22 9 60 9 114v906l-502 -1105l-56 -16l-472 1052l-50 -837c12 -76.667 21 -128.667 27 -156c24.667 -28 63.667 -42 117 -42h48v-37h-454l8 52l52 -4c6 -1.33301 12 -2 18 -2
c27.333 0 46.666 15.333 57.999 46c13.333 18.667 26 66.334 38 143.001l-26 885c5.33301 64 7.33301 107.667 6 131c-25.333 35.333 -80.666 54.333 -165.999 57l-4 60l388 8l440 -1052l532 1060l368 -20l-8 -44l-25 -1c-58 -15.333 -99 -32.666 -123 -51.999
c-14.667 -21.333 -22 -70 -22 -146v-886c0 -83.333 9.33301 -135.333 28 -156c25.333 -28.667 58 -43 98 -43h56z" />
    <glyph glyph-name="N" unicode="N" horiz-adv-x="1479" 
d="M1440 1292h-44.001c-52 0 -94.667 -9.66699 -128 -29c-14.667 -21.333 -22 -70 -22 -146v-1143h-36l-894 1092v-835c0 -84 9 -136 27 -156c24.667 -28 55.667 -41 93 -39l20 4l-12 -32l-408 -12l40 48l7 -11c58 0 99 17.333 123 52c14.667 21.333 22 70 22 146v943
c-34 40 -60.333 67.333 -79 82c-25.333 20 -58.666 36.667 -99.999 50c-18.667 6 -33.667 12 -45 18l8 36l320 12l826 -1037v782c-12 74 -21.333 126 -28 156c-28 -0.666992 -66 7 -114 23h-56l6 56h472z" />
    <glyph glyph-name="O" unicode="O" horiz-adv-x="1479" 
d="M1400 686c0 -208 -58.666 -378 -175.999 -510c-122 -138 -285.667 -207 -491 -207c-206.667 0 -370 68.333 -490 205c-114 130 -171 299.667 -171 509c0 215.333 73.333 391 220 527c127.333 118 279.666 177 456.999 177c199.333 0 359 -68 479 -204
c114.667 -129.333 172 -295 172 -497zM1171 650c0 118.667 -6.00098 206.667 -18.001 264c-8 38 -26.333 88.333 -55 151c-66.667 145.333 -175 218 -325 218c-17.333 0 -35 -1 -53 -3c-18.667 2.66699 -36.667 4 -54 4c-90.667 0 -166.667 -37.667 -228 -113
c-91.333 -112 -137 -276 -137 -492c0 -154 3.66699 -231.333 11 -232c3.33301 0 7.33301 15 12 45c138 -280 255.667 -420 353 -420c9.33301 0 18.333 1.33301 27 4c14.667 -2.66699 29.334 -4 44.001 -4c158 0 299.333 146.667 424 440
c-0.666992 -78.667 -1 -32.667 -1 138z" />
    <glyph glyph-name="P" unicode="P" horiz-adv-x="1139" 
d="M1067 981c0 -122 -40.334 -216 -121.001 -282c-74 -61.333 -173.333 -92 -298 -92c-65.333 0 -141.333 9.33301 -228 28v-395c0 -84.667 9.33301 -137.667 28 -159c26 -29.333 64.333 -44 115 -44h52v-37h-581v37h51c57.333 0 98.333 18.667 123 56
c13.333 20.667 20 69.667 20 147v876c0 85.333 -9 138.333 -27 159c-26 29.333 -64.667 44 -116 44h-51v37h497c106.667 0 191.334 -9 254.001 -27c84 -24 151.333 -66 202 -126c53.333 -62.667 80 -136.667 80 -222zM838.999 961c0 132.667 -46.001 225 -138.001 277
c-43.333 24.667 -93.333 37 -150 37c-34 0 -77.667 -6.33301 -131 -19v-564c70.667 -13.333 125.334 -20 164.001 -20c76.667 0 139 29.667 187 89c45.333 55.333 68 122 68 200z" />
    <glyph glyph-name="Q" unicode="Q" horiz-adv-x="1479" 
d="M1401 677c0 -162.667 -44.332 -306.333 -132.999 -431c-90 -128 -212 -215 -366 -261c127.333 -220 290.666 -338 489.999 -354v-32c-202 7.33301 -399.333 72.333 -592 195c-94 60 -175 123.667 -243 191c-98 39.333 -174 80.333 -228 123
c-171.333 134.667 -257 325.667 -257 573c0 209.333 59.667 378.333 179 507c122.667 132.667 287.667 199 495 199c200.667 0 361.667 -69 483 -207c114.667 -131.333 172 -299 172 -503zM1172 652.001c0 302.667 -75 502 -225 598c-62.667 40 -133.667 60 -213 60
c-156.667 0 -272 -69.333 -346 -208c-58 -108.667 -87 -249 -87 -421c0 -219.333 47.333 -388.333 142 -507c83.333 -33.333 180.333 -79 291 -137c155.333 0 271 67 347 201c60.667 106.667 91 244.667 91 414z" />
    <glyph glyph-name="R" unicode="R" horiz-adv-x="1366" 
d="M1384 0l-362.001 -0.000976562l-459 634c-34 -1.33301 -61.667 -2 -83 -2c-18 0 -37.667 0.666992 -59 2v-394c0 -84.667 9.33301 -137.667 28 -159c26 -29.333 64 -44 114 -44h53v-37l-556 -4l32 40l-6 1c57.333 0 98.333 18.667 123 56c14 21.333 21 70.333 21 147v876
c0 86 -9.33301 139 -28 159c-14 14.667 -26.667 25.667 -38 33l4 -4l-32 60l393 -8c133.333 -2.66699 222 -8.66699 266 -18c88.667 -18.667 159.334 -55.667 212.001 -111c57.333 -59.333 86 -132.666 86 -219.999c0 -182 -111.333 -297.667 -334 -347l280 -389
c56.667 -78.667 104.667 -132.667 144 -162c52.667 -39.333 119.667 -63.333 201 -72v-37zM851.999 981.999c0 89.333 -25.833 159.333 -77.5 210s-122.5 76 -212.5 76c-38.667 0 -91 -6.33301 -157 -19l39 -529l-11 -35c12.667 -0.666992 22 -1 28 -1
c108.667 0 197.667 22 267 66c82.667 52 124 129.333 124 232z" />
    <glyph glyph-name="S" unicode="S" horiz-adv-x="1139" 
d="M1025 354c0 -118.667 -42.333 -212.33 -127 -280.997c-78.667 -64 -178.667 -96 -300 -96c-49.333 0 -86.333 3 -111 9l-139 34c-32.667 8 -70.334 19.333 -113.001 34c-33.333 0 -51.666 -16.667 -54.999 -50l-44 8l4 396l28 12c19.333 -72.667 41 -131.334 65 -176.001
c32 -60 80.667 -107 146 -141c60.667 -32 126.667 -48 198 -48c73.333 0 135 18.333 185 55c56.667 40.667 85 96.334 85 167.001c0 73.333 -37.667 138.666 -113 195.999c-46.667 35.333 -123.667 82.333 -231 141c-104 56.667 -180.333 104 -229 142
c-100 78.667 -150 172.667 -150 282c0 108 40 195.333 120 262c74.667 63.333 167 95 277 95c72.667 0 149 -17.667 229 -53c38 -16.667 64 -18.667 78 -6c10 -3.33301 19 -5 27 -5c18.667 0 29.667 11 33 33l60 -4l-4 -400l-52 32c-18.667 124.667 -86.667 206 -204 244
c-29.333 32 -62 48 -98 48c-23.333 0 -48 -6.66699 -74 -20c-23.333 14 -45.666 21 -66.999 21c-31.333 0 -61 -15 -89 -45c-51.333 -28 -77 -72.333 -77 -133c0 -40.667 14.333 -78.334 43 -113.001c41.333 -49.333 139.666 -116 294.999 -200
c111.333 -60 180 -99 206 -117c132 -90.667 198 -198.334 198 -323.001z" />
    <glyph glyph-name="T" unicode="T" horiz-adv-x="1251" 
d="M1200 1144l-68.001 0.000976562c2.66699 -3.33301 4.33398 -5.33301 5.00098 -6l1 1c-0.666992 4 -2.66699 10.333 -6 19c-48 44 -120.667 81.667 -218 113l-190 -27l-1 -1009c-7.33301 -28.667 -11 -53.667 -11 -75c0 -39.333 12.667 -66.333 38 -81
c25.333 -18 64.333 -32 117 -42l13 -1l8 -32l-532 -8l4 44l27 -3c57.333 0 98 17.333 122 52c20.667 12 31 36.667 31 74c0 20.667 -3 44.667 -9 72l-15 1013l-144 4h-144c-68 -22.667 -102 -49.334 -102 -80.001c0 -4 0.666992 -8 2 -12l-68 8l18 188h1107z" />
    <glyph glyph-name="U" unicode="U" horiz-adv-x="1479" 
d="M1457 1319l-50.999 0.000976562c-52.667 0 -89.334 -19.667 -110.001 -59c-8 -20 -12 -68 -12 -144v-560c-14.667 -125.333 -32 -220 -52 -284c-63.333 -202.667 -227.333 -304 -492 -304c-264 0 -430.667 94.667 -500 284c-21.333 163.333 -32 274.666 -32 333.999v530
c0 70 -7.33301 118.333 -22 145c-21.333 38.667 -62.666 58 -123.999 58l-50 9l16 80h576l-7 -89h-52c-56.667 -7.33301 -96.667 -25 -120 -53c-40.667 -17.333 -65 -63.333 -73 -138l-4 -600c16 -160 55.667 -274.333 119 -343c48.667 -70.667 127 -106 235 -106
c11.333 0 22.666 0.333008 33.999 1c88 -5.33301 164 12 228 52c77.333 29.333 125.333 81.333 144 156c26.667 48 48 144 64 288v540c0 84.667 -17.333 136.667 -52 156c-8 18 -28.667 27 -62 27c-11.333 0 -24 -1 -38 -3h-48l16 100l468 -16z" />
    <glyph glyph-name="V" unicode="V" horiz-adv-x="1479" 
d="M1454 1319c-48.667 -8.66699 -85.001 -24.0029 -109.001 -46.0029c-34.667 -31.333 -66 -81.333 -94 -150l-473 -1154h-37l-508 1169c-26.667 60.667 -45 97.334 -55 110.001c-33.333 41.333 -86.666 65 -159.999 71v37h554v-37c-100 -9.33301 -150 -39.666 -150 -90.999
c0 -33.333 15.333 -85.333 46 -156l345 -795l320 785c31.333 76.667 47 130.334 47 161.001c0 47.333 -42.333 78.333 -127 93l-17 3v37h418v-37z" />
    <glyph glyph-name="W" unicode="W" horiz-adv-x="1933" 
d="M1888 1312c-40 -21.333 -68.0029 -52.002 -84.0029 -92.002c-12.667 -13.333 -34 -66.666 -64 -159.999l-356 -1096l-85 1l-267 871l-349 -871h-36l-403 1126c-28 78.667 -47 128.334 -57 149.001c-21.333 45.333 -46.333 68 -75 68l8 52l388 -8l33 -37l-37 -27
c-22.667 4.66699 -37 7 -43 7c-35.333 -0.666992 -53 -21.334 -53 -62.001c0 -14.667 14.667 -68.334 44 -161.001l236 -748l184 636v203c-27.333 78.667 -70.333 127.334 -129 146.001c-2 2 2.33301 8.33301 13 19l4 48h400v-56l-4 -44c-18.667 5.33301 -35.667 8 -51 8
c-39.333 0 -67.666 -17.333 -84.999 -52c2.66699 -34.667 33.334 -96 92.001 -184l224 -748l260 768c8.66699 26 23.334 79.333 44.001 160c0 32.667 -6.66699 51.334 -20 56.001c-23.333 8 -42 9.33301 -56 4l-8 80h344z" />
    <glyph glyph-name="X" unicode="X" horiz-adv-x="1479" 
d="M1455 0l-581.998 0.00195312v37c30 0.666992 52 2.66699 66 6c45.333 10.667 68 34.334 68 71.001c0 15.333 -3 30.666 -9 45.999c-3.33301 8 -21.666 37.333 -54.999 88l-230 348l-284 -364c-42 -54 -63 -93.333 -63 -118c0 -48 43.333 -73.667 130 -77v-37h-481v37
c33.333 3.33301 62.666 10.333 87.999 21c84 35.333 166 103.666 246 204.999l320 404l-267 391c-59.333 86.667 -108.666 146.667 -147.999 180c-60.667 51.333 -131.334 78.333 -212.001 81v37h627v-37c-92.667 -3.33301 -139 -29 -139 -77c0 -24 16 -60 48 -108l208 -311
l241 305c40.667 51.333 61 89.666 61 114.999c0 32.667 -16.667 55 -50 67c-14.667 5.33301 -46.334 8.33301 -95.001 9v37h481v-37c-38.667 -2 -69.667 -8 -93 -18c-64.667 -27.333 -140 -96 -226 -206l-269 -344l291 -434c65.333 -98 109.666 -159 132.999 -183
c58 -60.667 123 -93 195 -97v-37z" />
    <glyph glyph-name="Y" unicode="Y" horiz-adv-x="1479" 
d="M1372 1320c-31.333 -0.666992 -75.332 -30.666 -131.999 -89.999c-32 -33.333 -65.667 -80 -101 -140l-303 -514l-24 -341c16 -79.333 25.333 -131.333 28 -156c25.333 -28 65.333 -42 120 -42h44v-37h-576v37h48c57.333 0 98 17.333 122 52
c-6.66699 18 -15.334 64.333 -26.001 139l32 316l-356 580c-33.333 54 -59 91 -77 111c-21.333 23.333 -58 48 -110 74c-2.66699 1.33301 -7 3.66602 -13 6.99902v40h424l8 -24l4 -4c14 -6 9.33301 -15.667 -14 -29c-28.667 -16 -43 -38.667 -43 -68
c0 -13.333 20.333 -56.666 61 -129.999l224 -405l256 392c66.667 61.333 101.334 104 104.001 128c-2.66699 37.333 -17.334 62.666 -44.001 75.999c-9.33301 18 -16 27.333 -20 28l-4 36h360zM1348 1320z" />
    <glyph glyph-name="Z" unicode="Z" horiz-adv-x="1251" 
d="M1180 324v-320l-1170 -12v37l850 1227h-412c-122.667 0 -192 -24 -208 -72c-2.66699 -45.333 -12 -80 -28 -104l-68 8v280h956l-832 -1236h572c30 -7.33301 56 -11 78 -11c42.667 0 72.667 13 90 39c40 29.333 65.333 84 76 164h96z" />
    <glyph glyph-name="bracketleft" unicode="[" horiz-adv-x="587" 
d="M547 -249h-367v1609h367v-107h-248v-1396h248v-106z" />
    <glyph glyph-name="backslash" unicode="\" horiz-adv-x="565" 
d="M556 -4h-176l-380 1198l184 2z" />
    <glyph glyph-name="bracketright" unicode="]" horiz-adv-x="587" 
d="M407 -249h-367v106h248v1396h-248v107h367v-1609z" />
    <glyph glyph-name="asciicircum" unicode="^" horiz-adv-x="788" 
d="M768 436h-160l-208 508l-232 -508h-141l317 701h107z" />
    <glyph glyph-name="underscore" unicode="_" horiz-adv-x="1032" 
d="M1042 -258h-1042l-8 130h1044z" />
    <glyph glyph-name="grave" unicode="`" horiz-adv-x="682" 
d="M447 1045l-55 -9l-274 354h223z" />
    <glyph glyph-name="a" unicode="a" horiz-adv-x="909" 
d="M905 132c-74.667 -100 -146.001 -149.998 -214.001 -149.998c-70.667 0 -106.667 50 -108 150c-94.667 -73.333 -153.667 -115.333 -177 -126c-36 -16.667 -74.333 -25 -115 -25c-66.667 0 -120 23 -160 69c-38.667 44 -58 99.667 -58 167c0 94.667 57.667 176 173 244
c68 40 180.333 88.667 337 146v36c0 159.333 -56.667 239 -170 239c-35.333 0 -66.666 -9.66699 -93.999 -29c-30.667 -21.333 -45.334 -49 -44.001 -83l2 -58c2 -64 -26.333 -96 -85 -96c-56 0 -84 32.333 -84 97c0 75.333 39 134.333 117 177c64 35.333 136.667 53 218 53
c152.667 0 248.334 -46 287.001 -138c12 -28.667 18 -87.334 18 -176.001v-311c0 -120.667 7.33301 -187.334 22 -200.001c7.33301 -6.66699 16 -10 26 -10c10.667 0 20 2.33301 28 7c13.333 8 40.333 32.333 81 73v-56zM582.999 197.002l-0.000976562 349.001
c-97.333 -38.667 -162.333 -67 -195 -85c-98 -54.667 -147 -120.334 -147 -197.001c0 -43.333 12.667 -81.333 38 -114c27.333 -35.333 62 -53 104 -53c50.667 0 117.334 33.333 200.001 100z" />
    <glyph glyph-name="b" unicode="b" 
d="M954 493c0 -162.667 -54.001 -293.667 -162.001 -393c-92.667 -85.333 -196 -128 -310 -128c-106 0 -216.333 38.667 -331 116v949c0 144 -10.333 224.333 -31 241c-10.667 8.66699 -24 13 -40 13c-18.667 0 -42 -5.33301 -70 -16l-14 35l275 112h45v-664
c88.667 123.333 184.334 185 287.001 185c112 0 200.667 -49 266 -147c56.667 -84.667 85 -185.667 85 -303zM780.999 436c0 91.333 -19.335 171.333 -58.002 240c-47.333 83.333 -113.666 125 -198.999 125c-35.333 0 -70.666 -9 -105.999 -27
c-26.667 -13.333 -60.667 -40 -102 -80v-548c68.667 -67.333 141 -101 217 -101c83.333 0 148 47 194 141c36 74 54 157.333 54 250z" />
    <glyph glyph-name="c" unicode="c" horiz-adv-x="909" 
d="M842 348c-21.333 -105.333 -63.333 -192.002 -126 -260.002c-70.667 -77.333 -156.667 -116 -258 -116c-122 0 -219.333 52 -292 156c-64 92 -96 201.667 -96 329c0 140 37.333 254.333 112 343c79.333 95.333 187.666 143 324.999 143
c70.667 0 137.334 -18.667 200.001 -56c72.667 -43.333 109 -98 109 -164c0 -56.667 -31 -85 -93 -85c-40 0 -69.667 12.667 -89 38c-4.66699 6 -12.334 33.333 -23.001 82c-17.333 78.667 -63 118 -137 118c-66.667 0 -120.334 -24.667 -161.001 -74
c-54 -65.333 -81 -151.666 -81 -258.999c0 -103.333 23.333 -194.666 70 -273.999c55.333 -94 131.333 -141 228 -141c64.667 0 123.334 22.333 176.001 67c36.667 31.333 72.334 87 107.001 167z" />
    <glyph glyph-name="d" unicode="d" 
d="M1029 85l-272.003 -113.002h-46v131c-83.333 -87.333 -173 -131 -269 -131c-113.333 0 -205.666 47.667 -276.999 143c-64.667 86.667 -97 188.334 -97 305.001c0 134 39.667 252.667 119 356c86 112 194 168 324 168c80.667 0 147.334 -25.667 200.001 -77v169
c0 144.667 -10.333 225.334 -31 242.001c-10.667 8.66699 -24 13 -40 13c-17.333 0 -40.333 -5.33301 -69 -16l-13 35l273 112h45v-1059c0 -146 10.667 -228 32 -246c10.667 -9.33301 23.334 -14 38.001 -14c18 0 42 5.66699 72 17zM710.997 172.998l-0.000976562 471.999
c0 95.333 -38.333 165 -115 209c-32.667 18.667 -65 28 -97 28c-58.667 0 -111 -26.333 -157 -79c-60.667 -69.333 -91 -170.666 -91 -303.999c0 -102 21.333 -192.667 64 -272c52 -96.667 125.333 -145 220 -145c60.667 0 119.334 30.333 176.001 91z" />
    <glyph glyph-name="e" unicode="e" horiz-adv-x="909" 
d="M851 334c-15.333 -100.667 -55.999 -184.666 -121.999 -251.999c-70.667 -73.333 -155 -110 -253 -110c-126 0 -226 49 -300 147c-66.667 88.667 -100 197.667 -100 327c0 144 33.667 260.333 101 349c74.667 99.333 182 149 322 149c108 0 194 -35.667 258 -107
c62.667 -68.667 94 -157.334 94 -266.001h-633c-0.666992 -113.333 25.666 -211 78.999 -293c62 -95.333 147 -143 255 -143c124 0 213.333 73 268 219zM642.001 629.001c-3.33301 58.667 -10.334 100 -21.001 124c-35.333 80 -94.666 120 -177.999 120
c-64.667 0 -117.667 -25.333 -159 -76c-37.333 -44.667 -59.333 -100.667 -66 -168h424z" />
    <glyph glyph-name="f" unicode="f" horiz-adv-x="682" 
d="M890 1251c0 -20 -8.66699 -38.832 -26 -56.499s-36 -26.5 -56 -26.5c-4 0 -40 30 -108 90s-114.667 90 -140 90c-64.667 0 -106 -33.333 -124 -100c-9.33301 -34.667 -14 -123.334 -14 -266.001v-66h236v-72h-236v-602c0 -85.333 9.33301 -139.333 28 -162
c24.667 -29.333 57.667 -44 99 -44h83v-36h-547v36h41c61.333 0 101 24.667 119 74c8 22 12 66 12 132v602h-178v72h178v60c0 180 59.667 308.667 179 386c60 38.667 127.667 58 203 58c70 0 134.333 -22.667 193 -68c38.667 -30 58 -63.667 58 -101z" />
    <glyph glyph-name="g" unicode="g" 
d="M987 836c0 -25.333 -5.00293 -40.001 -15.0029 -44.001c-5.33301 -2 -22.333 -3 -51 -3h-119c37.333 -48 56 -109.333 56 -184c0 -96.667 -37 -173.667 -111 -231c-67.333 -52.667 -150.666 -79 -249.999 -79c-45.333 0 -91.666 6.66699 -138.999 20
c-50 -43.333 -75 -81.666 -75 -114.999c0 -29.333 27 -48 81 -56c19.333 -2.66699 66 -5 140 -7c138 -3.33301 227 -8 267 -14c60 -8.66699 108 -30 144 -64c40 -37.333 60 -85 60 -143c0 -75.333 -35.333 -146 -106 -212c-104 -97.333 -239.667 -146 -407 -146
c-129.333 0 -238 29 -326 87c-50 32.667 -75 67.334 -75 104.001c0 33.333 27 83.666 81 150.999c5.33301 6.66699 39.333 42.667 102 108c-63.333 38 -95 75 -95 111c0 54 53.333 125.667 160 215c-116 56.667 -174 149 -174 277c0 102 36 183.667 108 245
c67.333 58 153 87 257 87c87.333 0 163 -21.333 227 -64h194c28.667 0 45.334 -1 50.001 -3c10.667 -4.66699 16 -18 16 -40zM682.997 579.999c0 106 -23 189 -69 249c-34 44 -77.667 66 -131 66c-61.333 0 -107 -26 -137 -78c-24.667 -42 -37 -96 -37 -162
c0 -105.333 22.667 -187 68 -245c34.667 -44 78.667 -66 132 -66c116 0 174 78.667 174 236zM901.997 -123.001c0 46 -34.334 76.001 -103.001 90.001c-21.333 4.66699 -72.666 8 -153.999 10c-134.667 4 -250 11.667 -346 23c-63.333 -68.667 -95 -127.334 -95 -176.001
c0 -32 19.333 -60 58 -84c66.667 -41.333 163 -62 289 -62c82 0 155 13 219 39c88 36 132 89.333 132 160z" />
    <glyph glyph-name="h" unicode="h" 
d="M1011 0l-450 -0.000976562v36h21c70 0 111.333 25.667 124 77c2 8 3 39.333 3 94v324c0 75.333 -1.33301 123 -4 143c-13.333 98.667 -61 148 -143 148c-70.667 0 -147 -43.667 -229 -131v-484c0 -46.667 1 -76 3 -88c9.33301 -55.333 57.666 -83 144.999 -83v-36h-454
v36c40 0 72 6.33301 96 19c29.333 15.333 44 66 44 152v829c0 144.667 -10 225.334 -30 242.001c-10 8.66699 -24 13 -42 13c-14 0 -36.667 -5.33301 -68 -16l-14 35l274 112h46v-670c55.333 60.667 100.333 103.667 135 129c56.667 41.333 113.667 62 171 62
c110 0 182.333 -59.333 217 -178c12.667 -43.333 19 -121.333 19 -234v-324c0 -57.333 4.66699 -97 14 -119c14.667 -34.667 55.334 -52 122.001 -52v-36z" />
    <glyph glyph-name="i" unicode="i" horiz-adv-x="569" 
d="M398 1321c0 -28 -9.83398 -52 -29.501 -72s-43.5 -30 -71.5 -30s-52 10 -72 30s-30 44 -30 72c0 28.667 9.83301 52.667 29.5 72s43.834 29 72.501 29c28 0 51.833 -9.83301 71.5 -29.5s29.5 -43.5 29.5 -71.5zM518.999 0l-445 0.000976562v36
c68 0 110.333 18.667 127 56c8.66699 19.333 13 57.666 13 114.999v353c0 100 -3 164.333 -9 193c-8 38 -29 57 -63 57c-18.667 0 -41.334 -5 -68.001 -15l-14 36l276 112h44v-736c0 -86 16.667 -138.333 50 -157c16.667 -9.33301 46.334 -14 89.001 -14v-36z" />
    <glyph glyph-name="j" unicode="j" horiz-adv-x="569" 
d="M400 1320c0 -28.667 -10.001 -52.833 -30.001 -72.5s-44.333 -29.5 -73 -29.5c-28 0 -52 10 -72 30s-30 44 -30 72c0 28.667 9.83301 53 29.5 73s43.834 30 72.501 30s53 -10 73 -30s30 -44.333 30 -73zM382.999 21.001c0 -133.333 -25.999 -240.002 -77.999 -320.002
c-61.333 -95.333 -155.333 -143 -282 -143c-40 0 -77 7 -111 21c-45.333 18.667 -68 45.334 -68 80.001c0 22.667 8 42.5 24 59.5s35.333 25.5 58 25.5c16 0 33.667 -4.33301 53 -13c10 -4.66699 33.667 -23 71 -55c30 -26 55.333 -39 76 -39c40.667 0 67.667 26.667 81 80
c7.33301 29.333 11 92.333 11 189v652c0 100.667 -3 165.334 -9 194.001c-8 38.667 -29 58 -63 58c-18.667 0 -41.334 -5 -68.001 -15l-14 36l276 112h43v-922z" />
    <glyph glyph-name="k" unicode="k" 
d="M1036 0l-445 -0.000976562v36c43.333 1.33301 65 15 65 41c0 15.333 -13.333 40 -40 74l-281 359v-304c0 -88 16 -140.333 48 -157c15.333 -8 48.666 -12.333 99.999 -13v-36h-466v36c75.333 0 121 17 137 51c10 21.333 15 59.333 15 114v834c0 146 -10 227.333 -30 244
c-10 8.66699 -24 13 -42 13c-14 0 -35 -5.66699 -63 -17l-17 35l272 112h46v-912l233 213c48.667 44.667 77.334 73.334 86.001 86.001c5.33301 8 8 16 8 24c0 31.333 -23.667 48.333 -71 51v32h398v-32c-96 -2.66699 -181.333 -38.334 -256 -107.001l-235 -217l235 -297
c62.667 -79.333 106.667 -131.333 132 -156c32 -31.333 60 -51.666 84 -60.999c16.667 -6.66699 45.667 -10 87 -10v-36z" />
    <glyph glyph-name="l" unicode="l" horiz-adv-x="569" 
d="M527 0h-449v36c65.333 0 106 18.667 122 56c8.66699 20 13 58.333 13 115v832c0 143.333 -9.66699 223 -29 239c-10 8.66699 -23.333 13 -40 13c-17.333 0 -39.333 -5.33301 -66 -16l-17 35l273 112h45v-1215c0 -85.333 17 -137.333 51 -156c18 -10 50.333 -15 97 -15
v-36z" />
    <glyph glyph-name="m" unicode="m" horiz-adv-x="1593" 
d="M1584 0h-452v36h19c70 0 111.667 24.667 125 74c2.66699 10 4 42.333 4 97v394c0 75.333 -9 128 -27 158c-25.333 42.667 -67 64 -125 64c-69.333 0 -148 -41.667 -236 -125l-2 -11l2 -43v-437c0 -46.667 1 -76 3 -88c9.33301 -55.333 58 -83 146 -83v-36h-463v36
c81.333 0 129.333 24 144 72c3.33301 10.667 5 43.667 5 99v394c0 75.333 -11 129 -33 161c-29.333 42.667 -70.333 64 -123 64c-35.333 0 -71 -9.66699 -107 -29c-56 -30 -98.667 -63 -128 -99v-491c0 -86 16.667 -138.333 50 -157c16.667 -9.33301 49.667 -14 99 -14v-36
h-453v36c67.333 0 109.333 19 126 57c8.66699 19.333 13 57.333 13 114v350c0 101.333 -3 166.333 -9 195c-8 38.667 -29 58 -63 58c-18.667 0 -41 -5 -67 -15l-15 36l276 112h43v-195c66 66 105.333 104.333 118 115c63.333 53.333 130 80 200 80
c125.333 0 202.333 -65 231 -195c54 62.667 100.333 107.667 139 135c56.667 40 117 60 181 60c104.667 0 177.667 -53.333 219 -160c14.667 -38 22 -98.667 22 -182v-394c0 -58.667 4.33301 -98 13 -118c15.333 -35.333 57 -53 125 -53v-36z" />
    <glyph glyph-name="n" unicode="n" 
d="M1015 0l-452.999 -0.00292969v36h19c70 0 111.667 25.667 125 77c2.66699 10 4 41.333 4 94v375c0 158.667 -47.333 238 -142 238c-79.333 0 -158.333 -43.333 -237 -130v-483c0 -61.333 3.66699 -99.666 11 -114.999c18 -37.333 64 -56 138 -56v-36h-453v36h20
c51.333 0 85.333 16.333 102 49c11.333 22.667 17 63.334 17 122.001v340c0 150 -10 233.333 -30 250c-10 8.66699 -24 13 -42 13c-18.667 0 -41 -5 -67 -15l-15 36l276 112h43v-194c107.333 129.333 209.666 194 306.999 194c103.333 0 175 -53.667 215 -161
c14.667 -39.333 22 -100.666 22 -183.999v-391c0 -86 16.667 -138.333 50 -157c16.667 -9.33301 46.667 -14 90 -14v-36z" />
    <glyph glyph-name="o" unicode="o" 
d="M953 475c0 -88 -18.334 -170.333 -55.001 -247c-39.333 -82.667 -94.166 -146 -164.499 -190s-147.833 -66 -232.5 -66c-138 0 -247.667 55 -329 165c-68.667 92.667 -103 196.667 -103 312c0 86.667 19 168.667 57 246c40 82.667 95.333 144.667 166 186s144 62 220 62
c138.667 0 250 -52.667 334 -158c71.333 -90 107 -193.333 107 -310zM766.999 398c0 162 -35.001 290.001 -105.001 384.001c-48 64 -108.333 96 -181 96c-89.333 0 -153.666 -47.333 -192.999 -142c-22 -52.667 -33 -120.334 -33 -203.001
c0 -113.333 20.333 -216.333 61 -309c52.667 -120.667 128.667 -181 228 -181c148.667 0 223 118.333 223 355z" />
    <glyph glyph-name="p" unicode="p" 
d="M955 491c0 -158 -45.3311 -288.667 -135.998 -392c-74.667 -84.667 -168.667 -127 -282 -127c-49.333 0 -92 7 -128 21c-27.333 10.667 -57.333 30.667 -90 60v-279c0 -49.333 1 -79.333 3 -90c6 -32.667 22.333 -56 49 -70c19.333 -10 53.666 -15 102.999 -15v-37h-480
v37h25c59.333 0 97.666 15.333 114.999 46c12.667 22 19 67 19 135v866c0 84 -11 133.667 -33 149c-11.333 8 -27.333 12 -48 12c-16 0 -36.333 -4.66699 -61 -14l-12 32l282 114h38v-214c85.333 145.333 183 218 293 218c92 0 168.667 -36 230 -108
c75.333 -88 113 -202.667 113 -344zM777.002 397c0 140 -30.666 247.667 -91.999 323c-42.667 52 -93.334 78 -152.001 78c-32 0 -63.667 -8 -95 -24c-24 -12 -63.667 -48 -119 -108v-342c0 -73.333 3 -122 9 -146c11.333 -45.333 37 -81.333 77 -108
c37.333 -25.333 80.333 -38 129 -38c66.667 0 120.667 26 162 78c54 68 81 163.667 81 287z" />
    <glyph glyph-name="q" unicode="q" 
d="M1024 -438l-462.001 -0.000976562v37h19c62.667 0 101.667 18.333 117 55c8 19.333 12 56.333 12 111v394c-105.333 -124.667 -205.333 -187 -300 -187c-107.333 0 -193.333 49.333 -258 148c-56 86 -84 185 -84 297c0 150 40.333 273.667 121 371
c86 103.333 202.667 155 350 155c76.667 0 140.334 -21.333 191.001 -64c38.667 18.667 75.667 40 111 64h34v-1178c0 -42.667 1.33301 -71 4 -85c6 -31.333 21.333 -53.666 46 -66.999c17.333 -9.33301 50.333 -14 99 -14v-37zM709.999 221.999v430
c0 92 -29.667 155.667 -89 191c-33.333 20 -71 30 -113 30c-94.667 0 -166 -42.333 -214 -127c-38.667 -68 -58 -153.333 -58 -256c0 -100 20.667 -184.333 62 -253c50 -82.667 122 -124 216 -124c74 0 139.333 36.333 196 109z" />
    <glyph glyph-name="r" unicode="r" horiz-adv-x="682" 
d="M695 832c0 -25.333 -8.33496 -47.1631 -25.002 -65.4961s-37.667 -27.5 -63 -27.5c-13.333 0 -40.5 11.5 -81.5 34.5l-61.5 34.5c-11.333 0 -24.333 -6.66699 -39 -20c-30.667 -28 -61.667 -73 -93 -135v-439c0 -62.667 10.667 -107.334 32 -134.001
c24 -29.333 66.667 -44 128 -44v-36h-469v36c78.667 0 125 24.333 139 73c3.33301 11.333 5 43.666 5 96.999v355c0 91.333 0.333008 131.666 1 120.999c-3.33301 62 -13.666 100 -30.999 114c-11.333 9.33301 -26 14 -44 14c-20.667 0 -44 -5 -70 -15l-10 36l277 112h42
v-206c76.667 137.333 155.334 206 236.001 206c33.333 0 62.833 -10.333 88.5 -31s38.5 -47.334 38.5 -80.001z" />
    <glyph glyph-name="s" unicode="s" horiz-adv-x="797" 
d="M725 250c0 -86.667 -29.999 -155.33 -89.999 -205.997c-56 -48 -128 -72 -216 -72c-57.333 0 -121.333 10 -192 30c-23.333 6.66699 -41.333 10 -54 10c-15.333 0 -27.333 -8.66699 -36 -26h-33v327h33c16 -80.667 46.667 -146 92 -196
c51.333 -57.333 115.333 -86 192 -86c42.667 0 78.667 12.333 108 37c32 26 48 59.667 48 101c0 55.333 -28.333 104.333 -85 147c-27.333 20.667 -82 51 -164 91c-72 35.333 -124.333 68.666 -157 99.999c-47.333 46 -71 103 -71 171c0 78.667 27 142.667 81 192
c52 48.667 117.667 73 197 73c36 0 79.667 -7.66699 131 -23c34 -10 56.667 -15 68 -15c18 0 33.333 12.667 46 38h33v-312h-33c-21.333 81.333 -47.333 140.666 -78 177.999c-40.667 50 -97.667 75 -171 75c-38.667 0 -73.334 -10 -104.001 -30
c-34.667 -22.667 -52 -52.334 -52 -89.001c0 -70.667 52.667 -131.667 158 -183l146 -71c135.333 -66 203 -153 203 -261z" />
    <glyph glyph-name="t" unicode="t" horiz-adv-x="569" 
d="M572 182c-46.667 -131.333 -123.666 -196.999 -230.999 -196.999c-74 0 -125.667 33 -155 99c-14 31.333 -21 80 -21 146v616h-145v33c82 32.667 153.667 99 215 199c13.333 21.333 34.666 67.666 63.999 138.999h31v-301h214v-70h-214v-594
c0 -100.667 30.333 -151 91 -151c52 0 89.333 27 112 81h39z" />
    <glyph glyph-name="u" unicode="u" 
d="M1021 85l-274.002 -113h-45v194c-59.333 -64.667 -105 -108.667 -137 -132c-56.667 -41.333 -114.667 -62 -174 -62c-108 0 -178.667 53 -212 159c-14.667 46.667 -22 112.667 -22 198v409c0 68 -18.333 111 -55 129c-17.333 8.66699 -50.666 12.667 -99.999 12v37h321
v-613c0 -138.667 50.667 -208 152 -208c66 0 141.667 43.333 227 130v519c0 54 -11.333 90.333 -34 109c-20 16 -57.667 24.667 -113 26v37h312v-555c0 -144.667 10.667 -226 32 -244c10.667 -9.33301 23.334 -14 38.001 -14c20.667 0 44 5.66699 70 17z" />
    <glyph glyph-name="v" unicode="v" 
d="M1005 879c-34.667 -2.66699 -58.668 -9.66602 -72.001 -20.999c-22 -18.667 -43 -52 -63 -100l-325 -786h-41l-327 773c-24.667 58.667 -55.667 97.667 -93 117c-11.333 6 -33.666 11.667 -66.999 17v37h431v-37h-28c-53.333 0 -80 -23.333 -80 -70
c0 -22 7 -49.667 21 -83l213 -506l214 525c15.333 37.333 23 65.666 23 84.999c0 9.33301 -2.66699 17 -8 23c-12.667 17.333 -45 26 -97 26v37h299v-37z" />
    <glyph glyph-name="w" unicode="w" horiz-adv-x="1479" 
d="M1460 879c-58 -8.66699 -100.668 -48.001 -128.001 -118.001l-306 -789h-41l-229 585l-267 -585h-37l-294 770c-16.667 43.333 -33.667 74 -51 92c-20.667 20.667 -52 35.667 -94 45v37h384v-37c-57.333 -4 -86 -24.667 -86 -62c0 -19.333 5.66699 -44.333 17 -75
l196 -527l197 429l-52 135c-14.667 38.667 -35.667 66.334 -63 83.001c-15.333 9.33301 -42.666 15 -81.999 17v37h436v-37c-81.333 -3.33301 -122 -29 -122 -77c0 -14 2.66699 -27.667 8 -41l208 -526l193 507c13.333 35.333 20 64 20 86c0 32 -32 49 -96 51v37h289v-37z
" />
    <glyph glyph-name="x" unicode="x" 
d="M999 0l-432 -0.000976562v36c59.333 0 89 19 89 57c0 14.667 -21.333 53.334 -64 116.001l-134 196l-147 -196c-45.333 -60.667 -68 -96.667 -68 -108c0 -40.667 30 -62.334 90 -65.001v-36h-299v36c24.667 3.33301 45.667 11.666 63 24.999c26 20 68.667 69.333 128 148
l192 255l-174 252c-40 58 -69.333 95.667 -88 113c-36 33.333 -78.667 50 -128 50v37h431v-37c-49.333 0 -74 -17 -74 -51c0 -16 11.667 -40.667 35 -74c11.333 -16 22.333 -32.667 33 -50l65 -104l75 104c48 66.667 72 108.334 72 125.001c0 33.333 -24 50 -72 50v37h310
v-37c-32.667 -2 -61 -11 -85 -27c-31.333 -21.333 -76 -70.666 -134 -147.999l-125 -167l228 -328c44 -63.333 73 -102 87 -116c35.333 -35.333 77.333 -54.333 126 -57v-36z" />
    <glyph glyph-name="y" unicode="y" 
d="M1012 879c-42 -4.66699 -75.666 -25 -100.999 -61c-4 -6 -15.333 -31.667 -34 -77l-373 -914c-29.333 -72 -69 -132.333 -119 -181c-59.333 -58.667 -123 -88 -191 -88c-35.333 0 -66 9.66699 -92 29c-28.667 21.333 -43 49 -43 83c0 62 34.333 93 103 93
c21.333 0 51.333 -7.33301 90 -22c26 -10 42.667 -15 50 -15c50 0 95.667 50.333 137 151l65 159l-329 691c-9.33301 20 -25.333 45.667 -48 77c-17.333 24 -31 39.667 -41 47c-14.667 10.667 -39.334 20 -74.001 28v37h427v-37h-21c-60 0 -90 -22.667 -90 -68
c0 -26.667 11 -62.667 33 -108l223 -462l205 506c11.333 28 17 55 17 81c0 22 -10.667 37 -32 45c-10.667 4 -30.667 6 -60 6v37h298v-37z" />
    <glyph glyph-name="z" unicode="z" horiz-adv-x="909" 
d="M876 879l-614.001 -812h334c55.333 0 94 3 116 9c39.333 10.667 68.333 34 87 70c10.667 20.667 19.667 65.667 27 135h34l-11 -281h-808v36l608 810h-300c-51.333 0 -84.666 -1.66699 -99.999 -5c-65.333 -14 -101 -73.667 -107 -179h-40l6 254h768v-37z" />
    <glyph glyph-name="braceleft" unicode="{" horiz-adv-x="632" 
d="M591 -249h-129c-62.667 0 -116.667 21.667 -162 65c-52 50.667 -78 119.667 -78 207v251c0 48 -17 91.833 -51 131.5s-77.667 59.5 -131 59.5v137c53.333 2.66699 97 22.5 131 59.5s51 79.167 51 126.5v299c0 88 26 157 78 207c45.333 44 99.333 66 162 66h129v-105h-88
c-41.333 0 -76.333 -10.667 -105 -32c-38 -30 -57 -75.333 -57 -136v-317c0 -92.667 -64 -171 -192 -235v-3c46 -9.33301 89.5 -38.833 130.5 -88.5s61.5 -97.167 61.5 -142.5v-278c0 -61.333 19 -106.333 57 -135c28.667 -22 63.667 -33 105 -33h88v-104z" />
    <glyph glyph-name="bar" unicode="|" horiz-adv-x="468" 
d="M289 -249h-109v1609h109v-1609z" />
    <glyph glyph-name="braceright" unicode="}" horiz-adv-x="632" 
d="M591 465c-53.333 0 -97 -19.833 -131 -59.5s-51 -83.5 -51 -131.5v-251c0 -87.333 -26 -156.333 -78 -207c-45.333 -43.333 -99.333 -65 -162 -65h-129v104h88c40.667 0 75.334 11 104.001 33c38.667 28.667 58 73.667 58 135v278c0 45.333 20.5 92.833 61.5 142.5
s84.5 79.167 130.5 88.5v3c-128 64 -192 142.333 -192 235v317c0 60.667 -19.333 106 -58 136c-28.667 21.333 -63.334 32 -104.001 32h-88v105h129c62.667 0 116.667 -22 162 -66c52 -50 78 -119 78 -207v-299c0 -47.333 17 -89.5 51 -126.5s77.667 -56.833 131 -59.5v-137
z" />
    <glyph glyph-name="asciitilde" unicode="~" horiz-adv-x="1112" 
d="M1081 645c-90 -158 -193.667 -237 -311 -237c-45.333 0 -90 9.66699 -134 29l-104 46c-80.667 46.667 -148 70 -202 70c-46.667 0 -89 -17 -127 -51c-26 -23.333 -61.667 -67 -107 -131l-76 100c82 144.667 183.667 217 305 217c49.333 0 129.333 -25.333 240 -76
c114 -38.667 183.667 -58 209 -58c77.333 0 147 51.667 209 155z" />
    <glyph glyph-name="nonbreakingspace" unicode="&#xa0;" horiz-adv-x="453" 
 />
    <glyph glyph-name="exclamdown" unicode="&#xa1;" horiz-adv-x="623" 
d="M340 822l-115 -119l-119 121l117 119zM328 107c-2 -96.667 -17 -188 -45 -274l-177 211c52 146.667 78 290 78 430v86c100.667 -112 148.667 -263 144 -453z" />
    <glyph glyph-name="cent" unicode="&#xa2;" 
d="M900 349c-31.333 -125.333 -85.6641 -222.667 -162.997 -292c-60 -54 -133.667 -81 -221 -81c-54 0 -108 11.667 -162 35l-142 -390h-70l155 427c-54 50.667 -93 102 -117 154c-34 73.333 -51 156.666 -51 249.999c0 168.667 52.333 298.667 157 390
c80.667 70 171.667 105 273 105c13.333 0 33.666 -1.33301 60.999 -4l140 383h72l-145 -402c67.333 -30 113.333 -59 138 -87c32 -36 48 -74.333 48 -115c0 -56.667 -31.333 -85 -94 -85c-36.667 0 -65.334 12.667 -86.001 38c-12 14.667 -20.667 42 -26 82
c-2.66699 20.667 -8.33398 42.334 -17.001 65.001l-228 -631c58 -40.667 112.333 -61 163 -61c86 0 153.333 28.667 202 86c21.333 25.333 49 74 83 146zM593.002 864.999c-18.667 8 -38.667 12 -60 12c-68 0 -122 -24.667 -162 -74c-54.667 -66.667 -82 -156 -82 -268
c0 -91.333 27 -186.333 81 -285z" />
    <glyph glyph-name="sterling" unicode="&#xa3;" horiz-adv-x="907" 
d="M799 176l-62.001 -175.998h-671l69 176h60c13.333 75.333 20 156.666 20 243.999c0 13.333 -0.333008 33.5 -1 60.5s-1 47.167 -1 60.5h-109l56 147h47c-2 12.667 -2.66699 36 -2 70c2 117.333 39.667 215.666 113 294.999c76 82 172 123.667 288 125
c71.333 0.666992 134.333 -21.333 189 -66l-95 -147c-70.667 44.667 -136 67 -196 67c-94.667 0 -142 -53.333 -142 -160c0 -21.333 3 -82 9 -182h168l-58 -147h-106c-5.33301 -164.667 -36.666 -287 -93.999 -367h518z" />
    <glyph glyph-name="currency" unicode="&#xa4;" 
d="M995 253l-57.999 -54.999l-143 143c-89.333 -68.667 -179.333 -103 -270 -103c-51.333 0 -104 8.66699 -158 26c-60.667 19.333 -106.334 45 -137.001 77l-146 -143l-56 55l144 145c-68 78 -102 172 -102 282c0 104.667 34 199 102 283l-144 141l56 57l146 -142
c78.667 68 173.667 102 285 102c108 0 201.333 -34 280 -102l143 142l58 -57l-144 -141c68.667 -88 103 -181.667 103 -281c0 -102.667 -34.333 -197.334 -103 -284.001zM874.001 679.001c0 64.667 -16.667 125.499 -50 182.499s-78.333 101 -135 132
s-115.667 46.5 -177 46.5c-107.333 0 -194.5 -33.667 -261.5 -101s-100.5 -154.666 -100.5 -261.999c0 -106 33.667 -192.333 101 -259s154 -100 260 -100s193 33.667 261 101s102 154 102 260z" />
    <glyph glyph-name="yen" unicode="&#xa5;" 
d="M1023 352l-426.001 -0.000976562v-108c0 -75.333 3.66699 -123 11 -143c14.667 -40 54.334 -60 119.001 -60h41v-41h-515v41h32c78.667 0 124.334 27.667 137.001 83c2.66699 12 4 52 4 120v108h-424v73h424v144l-15 36h-409v73h377l-213 496
c-20.667 48.667 -40.334 82.667 -59.001 102c-26 27.333 -61 41.333 -105 42v38h442v-38c-80.667 -5.33301 -121 -26 -121 -62c0 -10 6 -29.667 18 -59l214 -519l213 504c14 33.333 21 58.333 21 75c0 14 -7 27.667 -21 41c-8.66699 8.66699 -30 14.334 -64 17.001
c-4.66699 0.666992 -13.667 1.66699 -27 3v38h346v-38c-39.333 0 -68.333 -7.66699 -87 -23c-29.333 -24 -58 -68 -86 -132l-214 -485h387v-73h-419l-7 -16v-164h426v-73z" />
    <glyph glyph-name="brokenbar" unicode="&#xa6;" horiz-adv-x="410" 
d="M244 680h-83v742h83v-742zM244 -442h-83v742h83v-742z" />
    <glyph glyph-name="section" unicode="&#xa7;" horiz-adv-x="907" 
d="M809 592c1.33301 -50.667 -43.002 -123.663 -133.002 -218.996c68 -30.667 102 -86.667 102 -168c0 -74.667 -39 -135 -117 -181c-66.667 -39.333 -139.667 -59 -219 -59c-107.333 0 -211.666 26 -312.999 78l117 156c127.333 -80.667 239.333 -121 336 -121
c22 0 42.167 7.66699 60.5 23s27.5 33.666 27.5 54.999c0 28.667 -41.667 62.667 -125 102l-305 145c-94.667 45.333 -142 100.666 -142 165.999c0 73.333 45 148.666 135 225.999c-72 40 -108 95.333 -108 166c0 76 34 137 102 183c59.333 40 129 60 209 60
c112 0 219.333 -30.667 322 -92l-111 -141c-112.667 87.333 -217 131 -313 131c-24.667 0 -46.667 -7.66699 -66 -23c-21.333 -16.667 -32 -37 -32 -61c0 -26.667 18 -51 54 -73c12.667 -7.33301 50.334 -26 113.001 -56l230 -109
c115.333 -54.667 174 -117.334 176 -188.001zM673.998 498.004c0.666992 50.667 -35.667 93.668 -109 129.001l-280 135c-42.667 -42.667 -64 -78.334 -64 -107.001c0 -39.333 39 -77.333 117 -114l285 -135c33.333 29.333 50.333 60 51 92z" />
    <glyph glyph-name="dieresis" unicode="&#xa8;" horiz-adv-x="682" 
d="M626 1228c0 -30 -10.5 -55.5 -31.5 -76.5s-46.5 -31.5 -76.5 -31.5s-55.667 10.5 -77 31.5s-32 46.5 -32 76.5s10.667 55.667 32 77s47 32 77 32s55.5 -10.667 76.5 -32s31.5 -47 31.5 -77zM274 1228c0 -30 -10.5 -55.5 -31.5 -76.5s-46.5 -31.5 -76.5 -31.5
s-55.667 10.5 -77 31.5s-32 46.5 -32 76.5s10.5 55.667 31.5 77s46.5 32 76.5 32c30.667 0 56.5 -10.5 77.5 -31.5s31.5 -46.833 31.5 -77.5z" />
    <glyph glyph-name="copyright" unicode="&#xa9;" horiz-adv-x="1556" 
d="M1488 678c0 -128 -31.666 -246.672 -94.999 -356.005c-64 -111.333 -151.333 -197.666 -262 -258.999c-113.333 -62.667 -231 -94 -353 -94c-130 0 -249 31 -357 93c-110 62.667 -196.167 150.334 -258.5 263.001s-93.5 230.334 -93.5 353.001
c0 128.667 32.167 248.834 96.5 360.501s152.666 197.667 264.999 258s228.166 90.5 347.499 90.5c126.667 0 245 -31.333 355 -94c112.667 -63.333 199.334 -149.666 260.001 -258.999c63.333 -114 95 -232.667 95 -356zM1426 677.995c0 118 -29.3311 227.667 -87.998 329
s-139.334 179.833 -242.001 235.5s-208.667 83.5 -318 83.5c-114 0 -222 -29.167 -324 -87.5s-180.667 -136.833 -236 -235.5c-58 -104 -87 -212.333 -87 -325c0 -117.333 29 -226.333 87 -327s137.833 -179.334 239.5 -236.001s208.5 -85 320.5 -85
c119.333 0 228.333 28.333 327 85c101.333 57.333 180.166 137.333 236.499 240s84.5 210.334 84.5 323.001zM1166 430.995c-92.667 -135.333 -220.335 -203.002 -383.002 -203.002c-135.333 0 -245.666 40 -330.999 120c-88 81.333 -132 189.333 -132 324
c0 142.667 48 256.334 144 341.001c92 81.333 210 122 354 122c46.667 0 108.334 -12.667 185.001 -38c16 -5.33301 28.333 -8 37 -8c20.667 0 37 15 49 45h40l20 -280h-39c-47.333 157.333 -148.333 236 -303 236c-107.333 0 -189.333 -39.333 -246 -118
c-50 -69.333 -75 -159.666 -75 -270.999c0 -121.333 24 -217.333 72 -288c56.667 -83.333 143 -125 259 -125c130 0 234 54 312 162z" />
    <glyph glyph-name="ordfeminine" unicode="&#xaa;" horiz-adv-x="565" 
d="M563 857c-68 -49.333 -117.663 -74.002 -148.996 -74.002c-38 0 -62.333 31.667 -73 95c-84.667 -60.667 -156.334 -91 -215.001 -91c-37.333 0 -68.5 11.5 -93.5 34.5s-37.5 52.833 -37.5 89.5c0 60 43 116.667 129 170c34.667 21.333 107 54.333 217 99
c0 55.333 -4.66699 94.666 -14 117.999c-15.333 38.667 -46 58 -92 58c-44.667 0 -73.334 -15 -86.001 -45c-0.666992 -5.33301 -5 -33.666 -13 -84.999c-4.66699 -30 -22.334 -45 -53.001 -45c-37.333 0 -56 20 -56 60c0 52 28 90.333 84 115c42 18.667 92 28 150 28
c110.667 0 179 -31.667 205 -95c8.66699 -21.333 13 -57.666 13 -108.999v-218c0 -35.333 0.666992 -55.666 2 -60.999c4 -17.333 12 -26 24 -26c9.33301 0 28.666 10 57.999 30v-48zM341.004 915.998l0.000976562 226c-138 -46 -207 -107.333 -207 -184
c0 -24 8.83301 -44.333 26.5 -61s38.5 -25 62.5 -25c29.333 0 68.666 14.667 117.999 44z" />
    <glyph glyph-name="guillemotleft" unicode="&#xab;" 
d="M960 -8h-58l-394 472l394 470h58l-243 -470zM508 -8h-57l-387 472l387 470h57l-244 -470z" />
    <glyph glyph-name="logicalnot" unicode="&#xac;" horiz-adv-x="1155" 
d="M1116 472h-79v325h-1001v81h1080v-406z" />
    <glyph glyph-name="sfthyphen" unicode="&#xad;" horiz-adv-x="1155" 
d="M1116 797h-1080v81h1080v-81z" />
    <glyph glyph-name="sfthyphen" unicode="&#x2212;" horiz-adv-x="1155" 
d="M1116 797h-1080v81h1080v-81z" />
    <glyph glyph-name="registered" unicode="&#xae;" horiz-adv-x="1556" 
d="M1488 678c0 -128 -31.666 -246.672 -94.999 -356.005c-64 -111.333 -151.333 -197.666 -262 -258.999c-113.333 -62.667 -231 -94 -353 -94c-130 0 -249 31 -357 93c-110 62.667 -196.167 150.334 -258.5 263.001s-93.5 230.334 -93.5 353.001
c0 128.667 32.167 248.834 96.5 360.501s152.666 197.667 264.999 258s228.166 90.5 347.499 90.5c126.667 0 245 -31.333 355 -94c112.667 -63.333 199.334 -149.666 260.001 -258.999c63.333 -114 95 -232.667 95 -356zM1426 677.995c0 118 -29.3311 227.667 -87.998 329
s-139.334 179.833 -242.001 235.5s-208.667 83.5 -318 83.5c-114 0 -222 -29.167 -324 -87.5s-180.667 -136.833 -236 -235.5c-58 -104 -87 -212.333 -87 -325c0 -117.333 29 -226.333 87 -327s137.833 -179.334 239.5 -236.001s208.5 -85 320.5 -85
c119.333 0 228.333 28.333 327 85c101.333 57.333 180.166 137.333 236.499 240s84.5 210.334 84.5 323.001zM1177 248.995l-183.999 -0.000976562l-294 405h-76v-309c7.33301 -42 46.666 -63 117.999 -63v-33h-367v33c52 0 84.333 15 97 45c4.66699 11.333 7 42.333 7 93
v523c0 50.667 -1 79.667 -3 87c-8.66699 32 -38.334 48 -89.001 48v36h386c80 0 147 -17 201 -51c64 -40 96 -97.667 96 -173c0 -109.333 -74 -183.333 -222 -222l209 -298c24.667 -35.333 47.334 -59.666 68.001 -72.999c12 -8 29.667 -13 53 -15v-33zM908.004 878.994
c0 58 -18.832 104.333 -56.499 139s-85.834 52 -144.501 52c-25.333 0 -53.333 -5.33301 -84 -16v-357c130 0 215.333 29.333 256 88c19.333 28 29 59.333 29 94z" />
    <glyph glyph-name="macron" unicode="&#xaf;" horiz-adv-x="864" 
d="M781 451h-700v118h700v-118z" />
    <glyph glyph-name="macron" unicode="&#x2c9;" horiz-adv-x="864" 
d="M781 451h-700v118h700v-118z" />
    <glyph glyph-name="degree" unicode="&#xb0;" horiz-adv-x="797" 
d="M711 1038c0 -92.667 -29.167 -167.667 -87.5 -225s-133.833 -86 -226.5 -86c-92 0 -167.167 28.833 -225.5 86.5s-87.5 132.5 -87.5 224.5c0 92.667 29 168.167 87 226.5s133.333 87.5 226 87.5s168.167 -29.167 226.5 -87.5s87.5 -133.833 87.5 -226.5zM633 1038
c0 67.333 -21.832 122.832 -65.499 166.499s-99.167 65.5 -166.5 65.5c-68.667 0 -124.334 -21.5 -167.001 -64.5s-64 -98.833 -64 -167.5c0 -68 21.5 -123.5 64.5 -166.5s98.5 -64.5 166.5 -64.5c68.667 0 124.5 21.333 167.5 64s64.5 98.334 64.5 167.001z" />
    <glyph glyph-name="plusminus" unicode="&#xb1;" horiz-adv-x="1251" 
d="M1120 377h-415v-307h-123v307h-416v123h416v434h123v-434h415v-123zM1120 -123h-954v123h954v-123z" />
    <glyph glyph-name="twosuperior" unicode="&#xb2;" horiz-adv-x="567" 
d="M516 838l-49 -121.002h-395c21.333 104.667 62.333 193.334 123 266.001l97 114c37.333 43.333 56 82.333 56 117c0 72 -47.667 109 -143 111c-35.333 0.666992 -66 -2.66602 -92 -9.99902c21.333 52 39 91 53 117c28.667 8 60 12 94 12c60 0 109.667 -14.667 149 -44
c44 -32.667 66 -78 66 -136c0 -62 -24.667 -117.333 -74 -166l-131 -129c-38 -37.333 -60.333 -81 -67 -131h313z" />
    <glyph glyph-name="threesuperior" unicode="&#xb3;" horiz-adv-x="567" 
d="M502 987c0 -87.333 -27.5 -159.336 -82.5 -216.003s-125.833 -85 -212.5 -85c-51.333 0 -98.333 13.667 -141 41l75 115c30.667 -26 69 -39 115 -39c37.333 0 70 10.333 98 31c31.333 22.667 47 52 47 88c0 35.333 -18 64 -54 86c-30 18.667 -64.333 28.667 -103 30
c-18.667 0.666992 -40.667 -2.66602 -66 -9.99902l17 90c78.667 38.667 118 86.667 118 144c0 42.667 -38.667 65 -116 67c-24 0.666992 -50 -0.666016 -78 -3.99902c5.33301 15.333 23.666 53 54.999 113c18.667 4 39.334 6 62.001 6c54 0 100 -12 138 -36
c45.333 -28 68 -67.333 68 -118c0 -71.333 -36 -124.666 -108 -159.999c42.667 0 80.667 -13 114 -39c36 -28 54 -62.667 54 -104z" />
    <glyph glyph-name="acute" unicode="&#xb4;" horiz-adv-x="682" 
d="M565 1390l-295 -345h-34l105 345h224z" />
    <glyph glyph-name="micro" unicode="&#xb5;" horiz-adv-x="1180" 
d="M1094 204c-11.333 -154.667 -77.334 -231.999 -198.001 -231.999c-94 0 -146.667 63.333 -158 190c-108 -126.667 -212.667 -190 -314 -190c-36 0 -66.667 7 -92 21c-18 10 -39 31.333 -63 64c-0.666992 -20.667 -1 -36 -1 -46c0 -52.667 11.333 -132.334 34 -239.001
c8.66699 -40.667 13 -75.334 13 -104.001s-8.33301 -53.667 -25 -75c-18 -23.333 -41 -35 -69 -35c-58 0 -87 36.333 -87 109c0 31.333 9.66699 86.333 29 165c12.667 52 20 86.667 22 104c8 70.667 12 130.334 12 179.001v47l-1 28v726h164v-533c0 -96 6 -162 18 -198
c20 -60 61.333 -90 124 -90c78.667 0 157.334 44.667 236.001 134v687h165v-654c0 -68 2.66699 -111.667 8 -131c9.33301 -34 29.333 -51 60 -51c41.333 0 68.333 41.333 81 124h42z" />
    <glyph glyph-name="micro" unicode="&#x3bc;" horiz-adv-x="1180" 
d="M1094 204c-11.333 -154.667 -77.334 -231.999 -198.001 -231.999c-94 0 -146.667 63.333 -158 190c-108 -126.667 -212.667 -190 -314 -190c-36 0 -66.667 7 -92 21c-18 10 -39 31.333 -63 64c-0.666992 -20.667 -1 -36 -1 -46c0 -52.667 11.333 -132.334 34 -239.001
c8.66699 -40.667 13 -75.334 13 -104.001s-8.33301 -53.667 -25 -75c-18 -23.333 -41 -35 -69 -35c-58 0 -87 36.333 -87 109c0 31.333 9.66699 86.333 29 165c12.667 52 20 86.667 22 104c8 70.667 12 130.334 12 179.001v47l-1 28v726h164v-533c0 -96 6 -162 18 -198
c20 -60 61.333 -90 124 -90c78.667 0 157.334 44.667 236.001 134v687h165v-654c0 -68 2.66699 -111.667 8 -131c9.33301 -34 29.333 -51 60 -51c41.333 0 68.333 41.333 81 124h42z" />
    <glyph glyph-name="paragraph" unicode="&#xb6;" horiz-adv-x="928" 
d="M932 1301l-133 -0.000976562v-1743h-72v1743h-187v-1743h-73v1043c-105.333 4.66699 -186.333 16.334 -243 35.001c-158 52 -237 167 -237 345c0 72.667 14.333 132.667 43 180c79.333 130 215 195 407 195h495v-55z" />
    <glyph glyph-name="periodcentered" unicode="&#xb7;" horiz-adv-x="682" 
d="M705 703c0 -28.667 -10.3291 -53.334 -30.9961 -74.001s-45.334 -31 -74.001 -31s-53.334 10.333 -74.001 31s-31 45.334 -31 74.001c0 29.333 10.167 54.166 30.5 74.499s45.166 30.5 74.499 30.5s54.166 -10.167 74.499 -30.5s30.5 -45.166 30.5 -74.499z" />
    <glyph glyph-name="periodcentered" unicode="&#x2219;" horiz-adv-x="682" 
d="M705 703c0 -28.667 -10.3291 -53.334 -30.9961 -74.001s-45.334 -31 -74.001 -31s-53.334 10.333 -74.001 31s-31 45.334 -31 74.001c0 29.333 10.167 54.166 30.5 74.499s45.166 30.5 74.499 30.5s54.166 -10.167 74.499 -30.5s30.5 -45.166 30.5 -74.499z" />
    <glyph glyph-name="cedilla" unicode="&#xb8;" horiz-adv-x="682" 
d="M496 -209c0 -55.333 -22.666 -100 -67.999 -134c-40.667 -31.333 -89.667 -47 -147 -47c-24.667 0 -56 2.33301 -94 7v43c18.667 -2.66699 34.667 -4 48 -4c32 0 60.167 10.5 84.5 31.5s36.5 47.167 36.5 78.5c0 21.333 -8 39 -24 53s-34.667 21 -56 21
c-6.66699 0 -15.334 -0.666992 -26.001 -2l111 178h60l-50 -79c83.333 -21.333 125 -70 125 -146z" />
    <glyph glyph-name="onesuperior" unicode="&#xb9;" horiz-adv-x="567" 
d="M518 838l-72 -121.001h-364l65 121h99v428c-46 36.667 -91 63.334 -135 80.001c74 50.667 156.333 86 247 106v-614h160z" />
    <glyph glyph-name="ordmasculine" unicode="&#xba;" horiz-adv-x="635" 
d="M611 1091c0 -89.333 -27.8311 -162.334 -83.498 -219.001s-127.834 -85 -216.501 -85c-84.667 0 -152.834 26.833 -204.501 80.5s-77.5 122.834 -77.5 207.501c0 94 26 169 78 225s124.333 84 217 84c86 0 155.333 -27.167 208 -81.5s79 -124.833 79 -211.5z
M473.002 1023c0 104.667 -23.668 190 -71.001 256c-29.333 41.333 -64.666 62 -105.999 62c-84 0 -126 -62.667 -126 -188c0 -105.333 23 -191.333 69 -258c26 -38 60 -57 102 -57c88 0 132 61.667 132 185z" />
    <glyph glyph-name="guillemotright" unicode="&#xbb;" 
d="M960 462l-387 -470h-57l244 470l-244 472h57zM516 462l-394 -470h-58l243 470l-243 472h58z" />
    <glyph glyph-name="onequarter" unicode="&#xbc;" horiz-adv-x="1360" 
d="M1348 305l-72 -123h-86v-139l-113 -53v192h-264c0 4.66699 -0.333008 11.5 -1 20.5s-1 15.833 -1 20.5c0 129.333 37 239.666 111 330.999c71.333 88.667 170.333 150.334 297 185.001c-18 -37.333 -27 -74 -27 -110v-324h156zM1145 1192l-783 -1221h-100l780 1221h103z
M518 592l-72 -121.001h-364l65 121h99v428c-46 36.667 -91 63.334 -135 80.001c74 50.667 156.333 86 247 106v-614h160zM1077 304.999v273c-52 -22 -93.667 -58.5 -125 -109.5s-47 -105.5 -47 -163.5h172z" />
    <glyph glyph-name="onehalf" unicode="&#xbd;" horiz-adv-x="1360" 
d="M1303 121l-50.001 -121h-395c20.667 106 61.667 194.667 123 266l98 114c37.333 43.333 56 82.666 56 117.999c0 72 -48 108.667 -144 110c-37.333 0.666992 -68 -2.66602 -92 -9.99902c22 52 39.667 91 53 117c28.667 8 60.334 12 95.001 12
c60 0 109.667 -14.667 149 -44c44 -32.667 66 -78 66 -136c0 -61.333 -24.667 -116.333 -74 -165l-131 -130c-38 -37.333 -60.667 -81 -68 -131h314zM1145 1192l-783 -1221h-100l780 1221h103zM517.999 592l-72 -121.001h-364l65 121h99v428
c-46 36.667 -91 63.334 -135 80.001c74 50.667 156.333 86 247 106v-614h160z" />
    <glyph glyph-name="threequarters" unicode="&#xbe;" horiz-adv-x="1360" 
d="M1348 305l-72 -123h-86v-139l-113 -53v192h-264c0 4.66699 -0.333008 11.5 -1 20.5s-1 15.833 -1 20.5c0 129.333 37 239.666 111 330.999c71.333 88.667 170.333 150.334 297 185.001c-18 -37.333 -27 -74 -27 -110v-324h156zM1145 1192l-783 -1221h-100l780 1221h103z
M502 741c0 -87.333 -27.5 -159.334 -82.5 -216.001s-125.833 -85 -212.5 -85c-51.333 0 -98.333 13.667 -141 41l75 115c30.667 -26 69 -39 115 -39c37.333 0 70 10.333 98 31c31.333 22.667 47 52 47 88c0 35.333 -18 64 -54 86c-30 18.667 -64.333 29 -103 31
c-15.333 0.666992 -37.333 -3 -66 -11l17 90c78.667 38.667 118 86.667 118 144c0 42.667 -38.667 65 -116 67c-24 0.666992 -50 -0.666016 -78 -3.99902c5.33301 15.333 23.666 53 54.999 113c18.667 4 39.334 6 62.001 6c54 0 100 -12 138 -36
c45.333 -28 68 -67.333 68 -118c0 -71.333 -36 -124.333 -108 -159c43.333 0 81.333 -13 114 -39c36 -28 54 -63 54 -105zM1077 304.999v273c-52 -22 -93.667 -58.5 -125 -109.5s-47 -105.5 -47 -163.5h172z" />
    <glyph glyph-name="questiondown" unicode="&#xbf;" horiz-adv-x="737" 
d="M479 820l-110 -123l-117 119l110 127zM561 40l-115.001 -168c-8 -1.33301 -19.333 -2 -34 -2c-72.667 0 -131.667 17.667 -177 53c-50 38.667 -75 93.334 -75 164.001c0 26.667 23.5 81.5 70.5 164.5s70.5 127.833 70.5 134.5c0 33.333 -14.333 60 -43 80l115 125
c40.667 -46 61 -87 61 -123c0 -48.667 -19.667 -99.334 -59 -152.001c-28.667 -38.667 -43 -78 -43 -118c0 -48 17.333 -87.333 52 -118c32.667 -30 73.334 -45.333 122.001 -46c24.667 -0.666992 43 1.33301 55 6z" />
    <glyph glyph-name="multiply" unicode="&#xd7;" horiz-adv-x="1251" 
d="M1073 80l-67 -74l-363 373l-362 -373l-74 74l362 373l-362 366l74 74l362 -367l363 373l67 -74l-356 -372z" />
    <glyph glyph-name="divide" unicode="&#xf7;" horiz-adv-x="1251" 
d="M748 762c0 -30.667 -10.833 -56.5 -32.5 -77.5s-47.834 -31.5 -78.501 -31.5s-56.834 10.5 -78.501 31.5s-32.5 46.833 -32.5 77.5s10.833 56.667 32.5 78s47.834 32 78.501 32s56.834 -10.667 78.501 -32s32.5 -47.333 32.5 -78zM1120 377h-954v123h954v-123zM748 113
c0 -30.667 -10.833 -56.5 -32.5 -77.5s-47.834 -31.5 -78.501 -31.5s-56.834 10.5 -78.501 31.5s-32.5 46.833 -32.5 77.5s10.833 56.667 32.5 78s47.834 32 78.501 32s56.834 -10.667 78.501 -32s32.5 -47.333 32.5 -78z" />
    <glyph glyph-name="florin" unicode="&#x192;" 
d="M999 1275c0 -51.333 -22.6689 -76.999 -68.002 -76.999c-16 0 -30.5 5.5 -43.5 16.5s-19.5 24.167 -19.5 39.5c0 7.33301 3.66699 18.5 11 33.5s11 24.167 11 27.5c0 17.333 -11.667 26 -35 26c-53.333 0 -88 -36 -104 -108c-18.667 -84 -40 -203.333 -64 -358h178
l-17 -66h-174c-35.333 -182.667 -92.666 -418.667 -171.999 -708c-62 -226 -130.333 -375.667 -205 -449c-56.667 -55.333 -114.334 -83 -173.001 -83c-34 0 -62.333 9 -85 27c-24.667 19.333 -37 45.333 -37 78c0 23.333 7.16699 44 21.5 62s32.833 27 55.5 27
c16 0 30.833 -5.5 44.5 -16.5s20.5 -24.167 20.5 -39.5c0 -10 -4 -22 -12 -36l-12 -21c0 -14 8.33301 -21 25 -21c33.333 0 65.333 24.667 96 74c18.667 30 38.667 89 60 177c6.66699 28.667 35.334 167 86.001 415c3.33301 15.333 44.333 186.666 123 513.999h-177l15 66
l90 7c40.667 7.33301 71.667 28.333 93 63c8.66699 14 23.334 51 44.001 111c35.333 102 67 174 95 216c51.333 76.667 115.333 115 192 115c36.667 0 67.667 -9.33301 93 -28c29.333 -20.667 44 -48.667 44 -84z" />
    <glyph glyph-name="sheva" unicode="&#x5b0;" horiz-adv-x="147" 
d="M147 -279h-147v146h147v-146zM147 -510h-147v145h147v-145z" />
    <glyph glyph-name="hatafsegol" unicode="&#x5b1;" horiz-adv-x="651" 
d="M651 -279h-147v146h147v-146zM651 -510h-147v145h147v-145zM399 -279h-147v146h147v-146zM147 -279h-147v146h147v-146zM274 -510h-147v145h147v-145z" />
    <glyph glyph-name="hatafpatah" unicode="&#x5b2;" horiz-adv-x="635" 
d="M635 -279h-148v146h148v-146zM635 -510h-148v145h148v-145zM399 -256h-399v123h399v-123z" />
    <glyph glyph-name="hatafqamats" unicode="&#x5b3;" horiz-adv-x="635" 
d="M635 -279h-148v146h148v-146zM635 -510h-148v145h148v-145zM399 -256h-145l8 -207h-121l6 207h-147v123h399v-123z" />
    <glyph glyph-name="hiriq" unicode="&#x5b4;" horiz-adv-x="147" 
d="M147 -279h-147v146h147v-146z" />
    <glyph glyph-name="tsere" unicode="&#x5b5;" horiz-adv-x="399" 
d="M399 -279h-147v146h147v-146zM147 -279h-147v146h147v-146z" />
    <glyph glyph-name="segol" unicode="&#x5b6;" horiz-adv-x="399" 
d="M399 -279h-147v146h147v-146zM147 -279h-147v146h147v-146zM274 -510h-147v145h147v-145z" />
    <glyph glyph-name="patah" unicode="&#x5b7;" horiz-adv-x="399" 
d="M399 -256h-399v123h399v-123z" />
    <glyph glyph-name="qamats" unicode="&#x5b8;" horiz-adv-x="399" 
d="M399 -256h-145l8 -207h-121l6 207h-147v123h399v-123z" />
    <glyph glyph-name="holam" unicode="&#x5b9;" horiz-adv-x="147" 
d="M147 1135h-147v145h147v-145z" />
    <glyph glyph-name="qibuts" unicode="&#x5bb;" horiz-adv-x="651" 
d="M651 -510h-147v145h147v-145zM399 -395h-147v145h147v-145zM147 -279h-147v146h147v-146z" />
    <glyph glyph-name="dagesh" unicode="&#x5bc;" horiz-adv-x="147" 
d="M147 442h-147v146h147v-146z" />
    <glyph glyph-name="meteg" unicode="&#x5bd;" horiz-adv-x="92" 
d="M92 -393h-92v260h92v-260z" />
    <glyph glyph-name="maqaf" unicode="&#x5be;" horiz-adv-x="512" 
d="M419 911h-352v129h352v-129z" />
    <glyph glyph-name="rafe" unicode="&#x5bf;" horiz-adv-x="680" 
d="M627 989l-82 -158h-482l76 158h488z" />
    <glyph glyph-name="paseq" unicode="&#x5c0;" horiz-adv-x="468" 
d="M289 -249h-109v1609h109v-1609z" />
    <glyph glyph-name="shindot" unicode="&#x5c1;" horiz-adv-x="1247" 
d="M999 1135h-147v145h147v-145z" />
    <glyph glyph-name="sindot" unicode="&#x5c2;" horiz-adv-x="1247" 
d="M270 1135h-147v145h147v-145z" />
    <glyph glyph-name="sofpasuq" unicode="&#x5c3;" horiz-adv-x="391" 
d="M255 762c0 -64 -31.333 -96 -94 -96c-64 0 -96 32 -96 96s32 96 96 96c62.667 0 94 -32 94 -96zM255 63c0 -63.333 -31.333 -95 -94 -95c-64 0 -96 31.667 -96 95c0 64.667 32 97 96 97c62.667 0 94 -32.333 94 -97z" />
    <glyph glyph-name="alef" unicode="&#x5d0;" horiz-adv-x="1056" 
d="M986 0h-156l-389 541c-148.667 -49.333 -223 -149.666 -223 -300.999v-240h-129v219c0 172 75 290 225 354h97l-336 461v10h147l373 -503c136.667 51.333 205 159.666 205 324.999v178h135v-157c0 -195.333 -71.667 -322.333 -215 -381h-98z" />
    <glyph glyph-name="bet" unicode="&#x5d1;" 
d="M953 0l-872.001 0.000976562v123h307c114.667 0 207.834 36.5 279.501 109.5s107.5 170.833 107.5 293.5c0 139.333 -41 245.333 -123 318c-68 60 -154.667 90 -260 90c-120 0 -214.667 -32.667 -284 -98h-13v141c70 54.667 169.667 82 299 82
c143.333 0 262.333 -42.333 357 -127c103.333 -92.667 155 -220.334 155 -383.001c0 -203.333 -72.333 -345.333 -217 -426h264v-123z" />
    <glyph glyph-name="gimel" unicode="&#x5d2;" horiz-adv-x="538" 
d="M420 0h-126.999v281c0 5.33301 -2 9.33301 -6 12s-9 -0.666016 -15 -9.99902c-13.333 -30 -56.333 -104.667 -129 -224c-22.667 -36.667 -43 -66.334 -61 -89.001h-29v173c157.333 210.667 236 332.334 236 365.001v237c0 49.333 -11.333 90.833 -34 124.5
s-54.334 50.5 -95.001 50.5c-27.333 0 -52 -7 -74 -21v125c19.333 13.333 47.333 20 84 20c72.667 0 132.5 -25.833 179.5 -77.5s70.5 -119.834 70.5 -204.501v-762z" />
    <glyph glyph-name="dalet" unicode="&#x5d3;" horiz-adv-x="1028" 
d="M935 915h-152v-915h-133v915h-583v129h868v-129z" />
    <glyph glyph-name="he" unicode="&#x5d4;" horiz-adv-x="1101" 
d="M988 0l-133.001 0.000976562v502c0 136.667 -36 241 -108 313c-67.333 66.667 -159.666 100 -276.999 100h-346v129h346c156 0 279 -42 369 -126c99.333 -94.667 149 -233.334 149 -416.001v-502zM279.999 0.000976562h-136v569h136v-569z" />
    <glyph glyph-name="vav" unicode="&#x5d5;" horiz-adv-x="387" 
d="M264 0h-135v1044h135v-1044z" />
    <glyph glyph-name="zayin" unicode="&#x5d6;" horiz-adv-x="442" 
d="M390 946l-8 -1.99902c-82 -20.667 -123 -92.334 -123 -215.001v-729h-135v690c0 100 34 175 102 225h-159v129h323v-98z" />
    <glyph glyph-name="het" unicode="&#x5d7;" horiz-adv-x="1146" 
d="M1034 0h-133v481c0 140.667 -39 249.334 -117 326.001c-70.667 72 -166.667 108 -288 108h-232v-915h-135v1044h367c154 0 280 -45 378 -135c106.667 -96.667 160 -232.334 160 -407.001v-502z" />
    <glyph glyph-name="tet" unicode="&#x5d8;" horiz-adv-x="1226" 
d="M1138 526c0 -158 -48.499 -288.5 -145.499 -391.5s-221.167 -154.5 -372.5 -154.5c-164 0 -291 54.333 -381 163c-83.333 102.667 -125 240.667 -125 414v487h135v-487c0 -140.667 31.667 -251 95 -331s155.333 -120 276 -120c113.333 0 205.833 39 277.5 117
s107.5 180.333 107.5 307c0 126 -34.333 225 -103 297c-60 67.333 -133.667 101 -221 101s-162.333 -42.333 -225 -127h-19v141c49.333 71.333 132.666 107 249.999 107c134 0 241.333 -44.667 322 -134c86 -94 129 -223.667 129 -389z" />
    <glyph glyph-name="yod" unicode="&#x5d9;" horiz-adv-x="366" 
d="M243 420h-135v624h135v-624z" />
    <glyph glyph-name="kaffinal" unicode="&#x5da;" horiz-adv-x="940" 
d="M826 -552h-134.998v1072c0 138 -35.333 243.333 -106 316c-64.667 64 -149.334 96 -254.001 96c-102.667 0 -186.667 -31.333 -252 -94h-12v139c62.667 54.667 152 82 268 82c143.333 0 258.666 -42.333 345.999 -127c96.667 -94 145 -230.667 145 -410v-1074z" />
    <glyph glyph-name="kaf" unicode="&#x5db;" horiz-adv-x="964" 
d="M883 520c0 -170.667 -54.668 -305 -164.001 -403c-97.333 -86 -214.666 -129 -351.999 -129c-114.667 0 -207 27.333 -277 82v139h12c67.333 -64 154 -96 260 -96c106.667 0 195.667 32.667 267 98c79.333 75.333 119 178.333 119 309c0 130 -39.667 233 -119 309
c-72.667 68.667 -161.667 103 -267 103c-106 0 -192.667 -31.333 -260 -94h-12v139c70 54.667 162.333 82 277 82c138.667 0 256.667 -43.667 354 -131c108 -100 162 -236 162 -408z" />
    <glyph glyph-name="lamed" unicode="&#x5dc;" horiz-adv-x="907" 
d="M784 575c0 -262 -125.333 -453.667 -376 -575h-193v23c290.667 107.333 436 293 436 557v335h-604v381h135v-252h602v-469z" />
    <glyph glyph-name="memfinal" unicode="&#x5dd;" horiz-adv-x="1167" 
d="M1055 0l-925.999 0.000976562v1044h387c157.333 0 283.666 -42 378.999 -126c106.667 -94.667 160 -233.334 160 -416.001v-502zM922.001 502.001c0 135.333 -38.333 239 -115 311c-71.333 68 -168.333 102 -291 102h-252v-790h658v377z" />
    <glyph glyph-name="mem" unicode="&#x5de;" horiz-adv-x="1249" 
d="M1170 532c0 -173.333 -50.335 -310.333 -151.002 -411c-90 -90 -200.667 -135 -332 -135c-117.333 0 -200.666 23 -249.999 69v138h19c60 -58 137.667 -87 233 -87c94 0 173.333 34.333 238 103c72 78 108 184.333 108 319c0 122 -35.833 219.5 -107.5 292.5
s-163.5 109.5 -275.5 109.5c-109.333 0 -200.666 -40.333 -273.999 -121c-80.667 -87.333 -121 -204 -121 -350v-459h-135v1044h135v-268c86 186 222.667 279 410 279c151.333 0 273 -48.833 365 -146.5s138 -223.167 138 -376.5z" />
    <glyph glyph-name="nunfinal" unicode="&#x5df;" horiz-adv-x="387" 
d="M264 -552h-135v1596h135v-1596z" />
    <glyph glyph-name="nun" unicode="&#x5e0;" horiz-adv-x="507" 
d="M384 0h-309v125h174v637c0 102 -38.333 153 -115 153c-19.333 0 -34.333 -3.33301 -45 -10v127c15.333 8 33 12 53 12c161.333 0 242 -87.333 242 -262v-782z" />
    <glyph glyph-name="samekh" unicode="&#x5e1;" horiz-adv-x="1228" 
d="M1146 500c0 -152 -47.5 -276.666 -142.5 -373.999s-217.5 -146 -367.5 -146c-166.667 0 -295.667 55.667 -387 167c-84.667 104 -127 240 -127 408v489h465c162 0 293.667 -45.667 395 -137c109.333 -96.667 164 -232.334 164 -407.001zM1013 500.001
c0 139.333 -41 245 -123 317c-74 65.333 -175 98 -303 98h-330v-360c0 -139.333 33.5 -250 100.5 -332s159.167 -123 276.5 -123c112 0 203.167 35.833 273.5 107.5s105.5 169.167 105.5 292.5z" />
    <glyph glyph-name="ayin" unicode="&#x5e2;" horiz-adv-x="958" 
d="M835 543c0 -161.333 -49.5 -292.167 -148.5 -392.5s-229.833 -150.5 -392.5 -150.5h-227v127h227c70.667 0 134 11.667 190 35l-448 882h153l406 -808c69.333 60 104 162.333 104 307v501h136v-501z" />
    <glyph glyph-name="pefinal" unicode="&#x5e3;" horiz-adv-x="1140" 
d="M1028 -552l-133 0.000976562v1054c0 130.667 -34.167 233 -102.5 307s-162.5 111 -282.5 111h-272c0 -100 22.5 -178 67.5 -234s109.167 -84 192.5 -84h168v-115h-189c-252.667 0 -379 165.333 -379 496v61h412c152.667 0 275.667 -45 369 -135
c99.333 -96.667 149 -232.334 149 -407.001v-1054z" />
    <glyph glyph-name="pe" unicode="&#x5e4;" horiz-adv-x="1110" 
d="M1027 502c0 -147.333 -50.167 -267.833 -150.5 -361.5s-224.833 -140.5 -373.5 -140.5h-348v125h327c124.667 0 224.167 33.5 298.5 100.5s111.5 159.833 111.5 278.5c0 142 -40.333 248.333 -121 319c-73.333 64.667 -174.333 97 -303 97h-248
c0 -100 22.5 -178 67.5 -234s109.167 -84 192.5 -84h189v-115h-209c-252.667 0 -379 165.333 -379 496v61h407c154.667 0 281 -45 379 -135c106.667 -98 160 -233.667 160 -407z" />
    <glyph glyph-name="tsadifinal" unicode="&#x5e5;" horiz-adv-x="968" 
d="M877 -552l-140 0.000976562l-692 1596h141l254 -585c72.667 27.333 133 69 181 125c61.333 72 92 159.333 92 262v198h135v-198c0 -102.667 -30 -194.334 -90 -275.001c-56 -72 -125.667 -121 -209 -147h-94z" />
    <glyph glyph-name="tsadi" unicode="&#x5e6;" horiz-adv-x="972" 
d="M859 887c0 -192.667 -78.333 -319.666 -235 -380.999h-86l309 -483v-23h-764v129h553l-600 915h156l325 -503c138 51.333 207 159.666 207 324.999v178h135v-157z" />
    <glyph glyph-name="qof" unicode="&#x5e7;" horiz-adv-x="1181" 
d="M1059 600c0 -143.333 -38.333 -270.333 -115 -381c-72 -102 -166 -175 -282 -219h-193v23c134 50 234.333 108.667 301 176c104 103.333 156 244 156 422v294h-797v129h930v-444zM285 -552h-135v1267h135v-1267z" />
    <glyph glyph-name="resh" unicode="&#x5e8;" horiz-adv-x="940" 
d="M826 0h-134.998v520c0 138 -35.333 243.333 -106 316c-64.667 64 -149.334 96 -254.001 96c-102.667 0 -186.667 -31.333 -252 -94h-12v139c62.667 54.667 152 82 268 82c143.333 0 258.666 -42.333 345.999 -127c96.667 -94 145 -230.667 145 -410v-522z" />
    <glyph glyph-name="shin" unicode="&#x5e9;" horiz-adv-x="1277" 
d="M1155 621c0 -216 -56.667 -376.667 -170 -482c-99.333 -92.667 -237.333 -139 -414 -139h-442v1044h133v-559c66.667 10 128 40 184 90c75.333 68.667 113 160.334 113 275.001v194h133v-176c0 -114.667 -31.333 -211.334 -94 -290.001
c-57.333 -71.333 -128.333 -117.333 -213 -138h-123v-321h344c131.333 0 233.5 42 306.5 126s109.5 199 109.5 345v454h133v-423z" />
    <glyph glyph-name="tav" unicode="&#x5ea;" horiz-adv-x="1232" 
d="M1120 0h-134.999v522c0 262 -128.333 393 -385 393h-231v-661c0 -84.667 -28.667 -151.667 -86 -201c-50.667 -44.667 -111.667 -67 -183 -67c-32.667 0 -59.334 5.33301 -80.001 16v127h9c12 -10.667 29 -16 51 -16c104 0 156 59.333 156 178v753h364
c346.667 0 520 -174 520 -522v-522z" />
    <glyph glyph-name="geresh" unicode="&#x5f3;" horiz-adv-x="344" 
d="M258 1143c0 -48 -9.66699 -99.998 -29 -155.998c-24 -76.667 -60 -133.334 -108 -170.001h-66l-10 14c50.667 67.333 76 196.666 76 387.999c0 24 11.667 36 35 36h63c20.667 0 33 -12.667 37 -38c1.33301 -6 2 -30.667 2 -74z" />
    <glyph glyph-name="gershayim" unicode="&#x5f4;" horiz-adv-x="620" 
d="M535 1143c0 -48 -9.66699 -99.998 -29 -155.998c-24.667 -76.667 -61 -133.334 -109 -170.001h-65l-10 14c50 67.333 75 196.666 75 387.999c0 24 11.667 36 35 36h64c20 0 32 -12.667 36 -38c2 -6 3 -30.667 3 -74zM258 1143c0 -48 -9.66699 -99.998 -29 -155.998
c-24 -76.667 -60 -133.334 -108 -170.001h-66l-10 14c50.667 67.333 76 196.666 76 387.999c0 24 11.667 36 35 36h63c20.667 0 33 -12.667 37 -38c1.33301 -6 2 -30.667 2 -74z" />
    <glyph glyph-name="lefttoright" unicode="&#x200e;" horiz-adv-x="831" 
d="M768 918l-336 -312v221h-143v-827h-176v1004h319v225z" />
    <glyph glyph-name="righttoleft" unicode="&#x200f;" horiz-adv-x="831" 
d="M719 0h-176v827h-144v-221l-336 312l336 311v-225h320v-1004z" />
    <glyph glyph-name="hyphenminus" unicode="&#x2010;" horiz-adv-x="680" 
d="M592 656l-47 -144h-457l51 158z" />
    <glyph glyph-name="endash" unicode="&#x2013;" horiz-adv-x="638" 
d="M566 451h-495v118h495v-118z" />
    <glyph glyph-name="quotedash" unicode="&#x2015;" horiz-adv-x="2048" 
d="M2067 453h-2085v74h2085v-74z" />
    <glyph glyph-name="quoteleft" unicode="&#x2018;" horiz-adv-x="344" 
d="M258 1143c0 -48 -9.66699 -99.998 -29 -155.998c-24 -76.667 -60 -133.334 -108 -170.001h-66l-10 14c50.667 67.333 76 196.666 76 387.999c0 24 11.667 36 35 36h63c20.667 0 33 -12.667 37 -38c1.33301 -6 2 -30.667 2 -74z" />
    <glyph glyph-name="quoteright" unicode="&#x2019;" horiz-adv-x="344" 
d="M258 1143c0 -48 -9.66699 -99.998 -29 -155.998c-24 -76.667 -60 -133.334 -108 -170.001h-66l-10 14c50.667 67.333 76 196.666 76 387.999c0 24 11.667 36 35 36h63c20.667 0 33 -12.667 37 -38c1.33301 -6 2 -30.667 2 -74z" />
    <glyph glyph-name="quotesinglbase" unicode="&#x201a;" horiz-adv-x="360" 
d="M237 121c0 -49.333 -9.66699 -101.667 -29 -157c-24.667 -75.333 -61 -131.333 -109 -168h-65l-10 14c50 65.333 75 194.333 75 387c0 24 11.667 36 35 36h64c20 0 32.333 -12.667 37 -38c1.33301 -7.33301 2 -32 2 -74z" />
    <glyph glyph-name="quotedblleft" unicode="&#x201c;" horiz-adv-x="620" 
d="M535 1143c0 -48 -9.66699 -99.998 -29 -155.998c-24.667 -76.667 -61 -133.334 -109 -170.001h-65l-10 14c50 67.333 75 196.666 75 387.999c0 24 11.667 36 35 36h64c20 0 32 -12.667 36 -38c2 -6 3 -30.667 3 -74zM258 1143c0 -48 -9.66699 -99.998 -29 -155.998
c-24 -76.667 -60 -133.334 -108 -170.001h-66l-10 14c50.667 67.333 76 196.666 76 387.999c0 24 11.667 36 35 36h63c20.667 0 33 -12.667 37 -38c1.33301 -6 2 -30.667 2 -74z" />
    <glyph glyph-name="quotedblright" unicode="&#x201d;" horiz-adv-x="620" 
d="M535 1143c0 -48 -9.66699 -99.998 -29 -155.998c-24.667 -76.667 -61 -133.334 -109 -170.001h-65l-10 14c50 67.333 75 196.666 75 387.999c0 24 11.667 36 35 36h64c20 0 32 -12.667 36 -38c2 -6 3 -30.667 3 -74zM258 1143c0 -48 -9.66699 -99.998 -29 -155.998
c-24 -76.667 -60 -133.334 -108 -170.001h-66l-10 14c50.667 67.333 76 196.666 76 387.999c0 24 11.667 36 35 36h63c20.667 0 33 -12.667 37 -38c1.33301 -6 2 -30.667 2 -74z" />
    <glyph glyph-name="quotedblbase" unicode="&#x201e;" horiz-adv-x="909" 
d="M851 -2c0 -76 -25.333 -142.333 -76 -199c-46 -52 -107 -90.333 -183 -115v42c109.333 56.667 164 125 164 205c0 41.333 -10.667 62 -32 62c-8.66699 0 -21.167 -2.66699 -37.5 -8s-28.833 -8 -37.5 -8c-28 0 -52 10.5 -72 31.5s-30 45.5 -30 73.5
c0 34 12.667 62.167 38 84.5s55.333 33.5 90 33.5c51.333 0 94 -21.333 128 -64c32 -39.333 48 -85.333 48 -138zM372 -1c0 -76 -24.6621 -142.667 -73.9951 -200c-46.667 -54.667 -107.667 -93 -183 -115v42c53.333 30 91.666 57.667 114.999 83
c32.667 36 49 78.667 49 128c0 37.333 -11.333 56 -34 56c-8.66699 0 -21.334 -2.66699 -38.001 -8s-29.334 -8 -38.001 -8c-28.667 0 -52.834 10 -72.501 30s-29.5 44.333 -29.5 73c0 34.667 13.667 63.667 41 87c25.333 22 55.666 33 90.999 33
c50.667 0 92.667 -21.333 126 -64c31.333 -39.333 47 -85 47 -137z" />
    <glyph glyph-name="bullet" unicode="&#x2022;" horiz-adv-x="717" 
d="M614 677c0 -74.667 -23.167 -135.167 -69.5 -181.5s-106.833 -69.5 -181.5 -69.5s-135.167 23.167 -181.5 69.5s-69.5 106.833 -69.5 181.5s23.167 135.167 69.5 181.5s106.833 69.5 181.5 69.5s135.167 -23.167 181.5 -69.5s69.5 -106.833 69.5 -181.5z" />
    <glyph glyph-name="ellipsis" unicode="&#x2026;" horiz-adv-x="2048" 
d="M1818 83c0 -30.667 -10.8311 -56.832 -32.498 -78.499s-47.834 -32.5 -78.501 -32.5s-56.834 10.833 -78.501 32.5s-32.5 47.834 -32.5 78.501c0 31.333 10.667 57.666 32 78.999s47.666 32 78.999 32c30.667 0 56.834 -10.833 78.501 -32.5s32.5 -47.834 32.5 -78.501z
M1135 83.002c0 -30.667 -10.8311 -56.832 -32.498 -78.499s-47.834 -32.5 -78.501 -32.5s-56.834 10.833 -78.501 32.5s-32.5 47.834 -32.5 78.501c0 31.333 10.667 57.666 32 78.999s47.666 32 78.999 32c30.667 0 56.834 -10.833 78.501 -32.5s32.5 -47.834 32.5 -78.501z
M452.004 83.0039c0 -30.667 -10.8291 -56.834 -32.4961 -78.501s-47.834 -32.5 -78.501 -32.5s-56.834 10.833 -78.501 32.5s-32.5 47.834 -32.5 78.501c0 31.333 10.667 57.666 32 78.999s47.666 32 78.999 32s57.666 -10.667 78.999 -32s32 -47.666 32 -78.999z" />
    <glyph glyph-name="perthousand" unicode="&#x2030;" horiz-adv-x="2048" 
d="M1981 320c0 -159.333 -47.668 -269.332 -143.001 -329.999c-47.333 -30 -95.666 -45 -144.999 -45c-111.333 0 -194 57.333 -248 172c-26 55.333 -39 116.666 -39 183.999c0 164 49.667 274.333 149 331c48 27.333 93.333 41 136 41c52.667 0 102.667 -16.333 150 -49
c45.333 -30.667 79.333 -70.667 102 -120c25.333 -54.667 38 -116 38 -184zM642.999 1021c0 -96 -23.001 -177.668 -69.001 -245.001c-53.333 -78 -125.666 -117 -216.999 -117c-114 0 -198 57.333 -252 172c-26.667 56.667 -40 120.334 -40 191.001
c0 152.667 48.667 260 146 322c44.667 28.667 92 43 142 43c115.333 0 199.333 -58.667 252 -176c25.333 -56.667 38 -120 38 -190zM1220 1387l-972 -1442h-89l972 1442h89zM1316 312c0 -151.333 -49.334 -258.666 -148.001 -321.999c-46.667 -30 -94 -45 -142 -45
c-90 0 -162 39.333 -216 118c-48 69.333 -72 151 -72 245c0 153.333 50.333 260.666 151 321.999c46.667 28.667 93.334 43 140.001 43c112 0 194.667 -58.333 248 -175c26 -56.667 39 -118.667 39 -186zM1821 329c0 194 -43.334 290.999 -130.001 290.999
c-83.333 0 -125 -105.333 -125 -316c0 -202.667 43 -304 129 -304c48.667 0 84.334 38 107.001 114c12.667 42.667 19 114.334 19 215.001zM482.996 1030c0 202.667 -44.667 304 -134 304c-82 0 -123 -105.667 -123 -317c0 -205.333 43 -308 129 -308
c85.333 0 128 107 128 321zM1155 302.999c0 211.333 -43.333 317 -130 317c-49.333 0 -85.333 -36.667 -108 -110c-12.667 -41.333 -19 -111.333 -19 -210c0 -200 42 -300 126 -300c87.333 0 131 101 131 303z" />
    <glyph glyph-name="guilsinglleft" unicode="&#x2039;" horiz-adv-x="682" 
d="M563 -8h-57l-387 472l387 470h57l-244 -470z" />
    <glyph glyph-name="guilsinglright" unicode="&#x203a;" horiz-adv-x="682" 
d="M567 462l-394 -470h-58l243 470l-243 472h58z" />
    <glyph glyph-name="newsheqel" unicode="&#x20aa;" horiz-adv-x="1325" 
d="M1181 471c0 -314 -153 -471 -459 -471h-303v565h112v-459h181c126.667 0 216 26 268 78c57.333 57.333 86 160 86 308v462h115v-483zM853 317l-113.001 -0.000976562v189c0 126.667 -26.167 215.334 -78.5 266.001s-137.166 76 -254.499 76h-181v-848h-114v954h295
c150 0 260.333 -33.333 331 -100c76.667 -70.667 115 -186.667 115 -348v-189z" />
    <glyph glyph-name="trademark" unicode="&#x2122;" horiz-adv-x="2007" 
d="M1973 549h-398.001v36c29.333 0.666992 50.333 2.66699 63 6c22.667 6 38.334 18.667 47.001 38c6 13.333 9 42 9 86v492l-307 -658h-32l-308 649v-482c0 -66 12 -106 36 -120c12.667 -7.33301 31.667 -11 57 -11h36v-36h-306v36c57.333 0 92 13.667 104 41
c6 14 9 44 9 90v466c0 72 -12.333 114.333 -37 127c-12.667 6.66699 -38 10 -76 10v37h286l273 -572l265 572h279v-37c-27.333 -0.666992 -47.333 -2.66699 -60 -6c-20 -5.33301 -34 -17.666 -42 -36.999c-6 -14.667 -9 -45.334 -9 -92.001v-468
c0 -53.333 5.33301 -87 16 -101c13.333 -17.333 45 -27.333 95 -30v-36zM800.999 1155h-33.999c-13.333 94 -78 141 -194 141h-75v-579c0 -50.667 5.33301 -84 16 -100c13.333 -19.333 43.333 -30 90 -32v-36h-374v36c45.333 4 74 15.333 86 34c9.33301 14.667 14 47 14 97
v580h-76c-58 0 -100.667 -9 -128 -27c-30.667 -20.667 -51.334 -58.667 -62.001 -114h-34l21 201h728z" />
    <glyph glyph-name="delete" unicode="&#x2421;" horiz-adv-x="1229" 
d="M1188 59h-293v469h62v-414h231v-55zM835 59h-350v469h339v-56h-277v-143h260v-55h-260v-160h288v-55zM429 296c0 -129.333 -47.667 -205.667 -143 -229c-22 -5.33301 -47.333 -8 -76 -8h-169v469h162c35.333 0 63 -2.33301 83 -7c95.333 -22 143 -97 143 -225z
M365 296.999c0 89.333 -27.667 144.667 -83 166c-15.333 6 -42 9 -80 9h-99v-358h100c54.667 0 93 11 115 33c31.333 31.333 47 81.333 47 150z" />
    <glyph glyph-name=".null" horiz-adv-x="0" 
 />
    <glyph glyph-name="nonmarkingreturn" horiz-adv-x="451" 
 />
    <glyph glyph-name="glyph4" horiz-adv-x="717" 
 />
    <glyph glyph-name="glyph5" horiz-adv-x="717" 
 />
    <glyph glyph-name="glyph143" horiz-adv-x="453" 
 />
    <glyph glyph-name="glyph144" horiz-adv-x="453" 
 />
    <glyph glyph-name="ch269" horiz-adv-x="453" 
 />
    <glyph glyph-name="ch270" horiz-adv-x="453" 
 />
    <glyph glyph-name="glyph142" horiz-adv-x="453" 
 />
    <glyph glyph-name="ch272" horiz-adv-x="453" 
 />
    <glyph glyph-name="glyph4" horiz-adv-x="453" 
 />
    <glyph glyph-name="glyph5" horiz-adv-x="453" 
 />
    <glyph glyph-name="ch332" horiz-adv-x="369" 
 />
    <glyph glyph-name="ch333" horiz-adv-x="369" 
 />
    <glyph glyph-name="ch334" horiz-adv-x="377" 
 />
    <glyph glyph-name="ch335" horiz-adv-x="377" 
 />
    <glyph glyph-name="ch805" horiz-adv-x="369" 
 />
    <glyph glyph-name="ch806" horiz-adv-x="369" 
 />
    <glyph glyph-name="ch807" horiz-adv-x="502" 
 />
    <glyph glyph-name="ch808" horiz-adv-x="502" 
 />
  </font>
</defs>
</svg>
